<svg width="360" height="415" viewBox="0 0 360 415" fill="none" xmlns="http://www.w3.org/2000/svg">
<g clip-path="url(#clip0_241_9669)">
<path d="M59.9845 45.8908L50.3035 29.123H69.5316L59.9845 45.8908ZM53.486 31.0218L59.8775 42.0666L66.3225 31.0218H53.486Z" fill="#E5E7EB"/>
<path d="M129.462 74.8801H110.127L119.781 58.1123L129.462 74.8801ZM113.416 72.9813H126.146L119.755 61.9365L113.416 72.9813Z" fill="#E5E7EB"/>
<path d="M179.659 45.8908L169.978 29.123H189.313L179.659 45.8908ZM173.267 31.0218L179.659 42.0666L185.997 31.0218H173.267Z" fill="#E5E7EB"/>
<path d="M249.136 74.8801H229.801L239.456 58.1123L249.136 74.8801ZM233.091 72.9813H245.82L239.429 61.9365L233.091 72.9813Z" fill="#E5E7EB"/>
<path d="M299.333 45.8908L289.652 29.123H308.987L299.333 45.8908ZM292.941 31.0218L299.333 42.0666L305.671 31.0218H292.941Z" fill="#E5E7EB"/>
<path d="M119.781 103.629L105.26 91.5674L111.785 73.7032L93.0651 70.5208L89.7758 51.8008L72.2057 58.3261L60.011 43.7512L47.9499 58.2726L30.0857 51.7473L26.9033 70.4673L8.18331 73.7567L14.7086 91.4605L0 103.575L14.5214 115.609L8.02286 133.5L26.7429 136.683L30.0322 155.403L47.736 148.851L59.9575 163.426L71.9918 148.904L89.856 155.429L93.0384 136.843L111.758 133.527L105.206 115.85L119.781 103.629ZM116.813 103.629L104.511 113.951L101.061 104.591L80.7367 108.175L75.3881 103.736L80.7367 99.1892L101.168 102.692L104.565 93.5999L116.813 103.629ZM102.96 115.262L96.2743 120.958L82.9029 109.753L100.045 106.757L102.96 115.262ZM78.2763 108.603L70.6546 109.94L73.3289 117.08L66.0816 114.406L64.7979 121.921L59.8238 115.984L54.9566 121.867L53.6462 114.245L46.4791 116.92L49.1534 109.672L41.6386 108.389L47.5488 103.441L41.6921 98.5473L49.2871 97.2102L46.6128 90.0698L53.8601 92.7441L55.1705 85.2294L60.1179 91.1396L64.9851 85.2829L66.3223 92.8778L73.4626 90.2036L70.7883 97.4509L78.3298 98.7345L72.3929 103.709L78.2763 108.603ZM82.6889 97.5846L96.0603 86.4061L103.013 92.1825L99.9648 100.553L82.6889 97.5846ZM93.6 72.4998L109.271 75.1741L103.762 90.257L96.1138 83.8922L80.2821 97.2637L73.4359 96.087L75.8427 89.4548L95.2848 82.2609L93.6 72.4998ZM93.1454 80.9505L76.6985 87.0212L82.6622 70.6545L91.5943 72.1789L93.1454 80.9505ZM88.4654 54.3681L91.1397 70.1732L81.325 68.4884L74.2649 87.8769L67.7129 90.3105L66.5095 83.3574L79.7472 67.3117L73.4359 59.7969L88.4654 54.3681ZM77.3671 67.4186L66.1886 80.7901L63.1131 63.7281L71.5906 60.5725L77.3671 67.4186ZM60.0377 46.7197L70.3605 59.0214L61.0005 62.498L64.5305 82.9028L60.0912 88.2513L55.5449 82.9028L59.0482 62.4712L49.8219 59.1016L60.0377 46.7197ZM48.5918 60.519L56.9355 63.5677L53.9938 80.8436L42.8153 67.4721L48.5918 60.519ZM31.5566 54.3146L46.6395 59.8237L40.2747 67.4989L53.6462 83.3039L52.4962 90.1768L45.864 87.7432L38.6702 68.3012L29.016 70.0127L31.5566 54.3146ZM28.5346 72.0184L37.44 70.4673L43.5106 86.9142L27.0103 80.9238L28.5346 72.0184ZM10.6971 75.1206L26.5022 72.4463L24.8174 82.2609L44.2059 89.321L46.6395 95.8463L39.6864 97.0765L23.6407 83.705L16.2329 90.0431L10.6971 75.1206ZM37.2261 97.4241L20.0839 100.446L16.955 91.9418L23.7744 86.2189L37.2261 97.4241ZM3.07543 103.575L15.4039 93.2522L18.8537 102.586L39.1783 98.9485L44.5269 103.388L39.1783 107.907L18.72 104.511L15.3237 113.711L3.07543 103.575ZM37.1993 109.646L23.8279 120.851L16.8747 114.994L19.9234 106.624L37.1993 109.646ZM26.3685 134.677L10.6971 132.003L16.1794 116.92L23.8546 123.285L39.6597 109.913L46.5326 111.09L44.099 117.722L24.6569 125.023L26.3685 134.677ZM26.7429 126.253L43.163 120.182L37.1993 136.549L28.2672 135.025L26.7429 126.253ZM31.4229 152.835L28.7486 137.004L38.5632 138.688L45.6233 119.3L52.1486 116.893L53.3787 123.846L40.0073 139.892L46.3186 147.407L31.4229 152.835ZM42.4944 139.785L53.6997 126.413L56.7216 143.582L48.2174 146.711L42.4944 139.785ZM59.904 160.457L49.608 148.155L58.8343 144.706L55.2507 124.381L59.7168 119.032L64.2363 124.381L60.7598 144.813L69.9593 148.182L59.904 160.457ZM71.3767 146.658L63.0062 143.609L65.9479 126.333L77.1531 139.705L71.3767 146.658ZM88.2514 152.862L73.2754 147.353L79.6402 139.678L66.2688 123.9L67.4455 117.027L74.0777 119.434L81.2448 138.876L90.9257 137.191L88.2514 152.862ZM91.2734 135.185L82.5017 136.736L76.5381 120.343L92.9047 126.307L91.2734 135.185ZM109.057 132.056L93.2523 134.731L94.9371 124.916L75.6555 117.936L73.2487 111.411L80.2018 110.207L96.2475 123.445L103.762 117.134L109.057 132.056Z" fill="#E5E7EB"/>
<path d="M69.5313 178.295H50.2765L59.9307 161.527L69.5313 178.295ZM53.4856 176.503H66.2152L59.8504 165.458L53.4856 176.503Z" fill="#E5E7EB"/>
<path d="M239.456 103.629L224.934 91.5676L231.459 73.7033L212.739 70.5209L209.45 51.8009L191.746 58.3529L179.552 43.7781L167.49 58.2994L149.76 51.7474L146.578 70.4675L127.858 73.7568L134.383 91.4606L119.808 103.682L134.329 115.716L127.804 133.607L146.524 136.79L149.813 155.51L167.517 148.958L179.739 163.533L191.773 149.011L209.637 155.536L212.82 136.95L231.54 133.634L224.988 115.957L239.456 103.629ZM236.487 103.629L224.185 113.951L220.736 104.591L200.411 108.175L195.062 103.736L200.411 99.1893L220.896 102.693L224.239 93.6L236.487 103.629ZM222.634 115.262L215.815 120.958L202.443 109.753L219.586 106.758L222.634 115.262ZM197.897 108.603L190.275 109.94L192.95 117.08L185.702 114.406L184.526 121.974L179.552 116.037L174.684 121.921L173.374 114.299L166.207 116.973L168.881 109.726L161.366 108.442L167.277 103.495L161.42 98.6009L169.015 97.2638L166.341 90.1235L173.588 92.7977L174.898 85.283L179.846 91.1932L184.526 85.283L185.863 92.878L193.003 90.2037L190.329 97.451L197.87 98.7346L191.933 103.709L197.897 108.603ZM202.31 97.5847L215.681 86.4062L222.634 92.1827L219.639 100.553L202.31 97.5847ZM213.167 72.4999L228.839 75.1742L223.33 90.2572L215.681 83.8924L199.849 97.2638L193.003 96.0871L195.41 89.4549L214.852 82.261L213.167 72.4999ZM212.713 80.9507L196.266 87.0213L202.229 70.6547L211.269 72.2057L212.713 80.9507ZM208.033 54.3682L210.707 70.1733L200.892 68.4885L193.832 87.877L187.28 90.3107L186.077 83.3575L199.448 67.3118L193.137 59.797L208.033 54.3682ZM196.934 67.4188L185.756 80.7902L182.734 63.6213L191.211 60.4656L196.934 67.4188ZM179.605 46.7198L189.874 59.0215L180.514 62.4981L184.205 82.9029L179.765 88.2515L175.219 82.9029L178.722 62.4713L169.496 59.1017L179.605 46.7198ZM168.213 60.5191L176.503 63.5678L173.561 80.8437L162.356 67.4722L168.213 60.5191ZM151.231 54.3148L166.314 59.8238L159.949 67.499L173.32 83.304L172.17 90.1769L165.538 87.7433L158.344 68.3013L148.69 70.0128L151.231 54.3148ZM148.209 72.0185L156.981 70.4675L163.131 86.9143L146.765 80.9239L148.209 72.0185ZM130.398 75.1207L146.203 72.4464L144.411 82.1808L163.8 89.2409L166.234 95.7662L159.28 96.9964L143.235 83.6249L135.72 89.9095L130.398 75.1207ZM156.927 97.4243L139.758 100.446L136.629 91.942L143.449 86.219L156.927 97.4243ZM122.75 103.575L135.078 93.2524L138.528 102.586L158.853 98.9486L164.201 103.388L158.853 107.907L138.394 104.431L135.051 113.63L122.75 103.575ZM156.874 109.646L143.502 120.851L136.549 114.994L139.598 106.624L156.874 109.646ZM146.176 134.731L130.505 132.056L135.854 116.973L143.529 123.338L159.334 109.967L166.207 111.143L163.773 117.776L144.411 125.023L146.176 134.731ZM146.631 126.307L163.051 120.236L157.088 136.603L148.155 135.078L146.631 126.307ZM151.284 152.889L148.61 137.057L158.451 138.742L165.512 119.353L172.037 116.947L173.267 123.9L159.896 139.945L166.207 147.46L151.284 152.889ZM162.383 139.838L173.588 126.467L176.503 143.475L168.025 146.604L162.383 139.838ZM179.578 160.457L169.282 148.155L178.616 144.706L175.032 124.381L179.498 119.032L184.018 124.381L180.541 144.813L189.874 148.236L179.578 160.457ZM191.051 146.658L182.68 143.609L185.622 126.333L196.827 139.705L191.051 146.658ZM208.033 152.862L192.95 147.353L199.314 139.678L185.943 123.9L187.2 117.027L193.832 119.434L200.999 138.876L210.68 137.191L208.033 152.862ZM211.055 135.185L202.283 136.736L196.186 120.343L212.579 126.307L211.055 135.185ZM228.839 132.056L213.034 134.731L214.718 124.916L195.223 117.936L192.816 111.411L199.769 110.207L215.815 123.445L223.33 117.134L228.839 132.056Z" fill="#E5E7EB"/>
<path d="M119.781 149.359L110.1 132.591H129.435L119.781 149.359ZM113.416 134.49L119.781 145.535L126.146 134.49H113.416Z" fill="#E5E7EB"/>
<path d="M189.286 178.295H169.951L179.605 161.527L189.286 178.295ZM173.24 176.396H185.97L179.605 165.351L173.24 176.396Z" fill="#E5E7EB"/>
<path d="M359.13 103.629L344.608 91.5676L351.134 73.7033L332.414 70.5209L329.124 51.8009L311.421 58.3529L299.226 43.7781L287.165 58.2994L269.301 51.7742L266.118 70.4942L247.398 73.7836L254.057 91.3536L239.482 103.575L254.057 115.609L247.532 133.5L266.252 136.683L269.541 155.403L287.245 148.851L299.467 163.426L311.501 148.904L329.365 155.43L332.547 136.843L351.267 133.527L344.715 115.85L359.13 103.629ZM356.161 103.629L343.86 113.951L340.41 104.591L320.085 108.175L314.737 103.736L320.085 99.1893L340.517 102.693L343.913 93.6L356.161 103.629ZM342.309 115.262L335.489 120.958L322.118 109.753L339.287 106.758L342.309 115.262ZM317.625 108.603L310.003 109.94L312.677 117.08L305.43 114.406L304.147 121.921L299.172 115.984L294.171 121.921L292.861 114.299L285.694 116.973L288.368 109.726L280.853 108.442L286.764 103.495L280.907 98.6009L288.502 97.2638L285.828 90.1234L293.075 92.7977L294.359 85.283L299.52 91.1397L304.387 85.283L305.724 92.878L312.865 90.2037L310.19 97.451L317.732 98.7346L311.795 103.709L317.625 108.603ZM322.038 97.5847L335.409 86.4062L342.362 92.1826L339.313 100.553L322.038 97.5847ZM332.895 72.4999L348.566 75.1742L343.057 90.2572L335.409 83.8924L319.577 97.2638L312.731 96.0871L315.138 89.4549L334.58 82.261L332.895 72.4999ZM332.414 80.9506L315.994 87.0213L321.957 70.6546L330.889 72.179L332.414 80.9506ZM327.76 54.3682L330.435 70.1733L320.62 68.4885L313.533 87.877L307.008 90.3106L305.805 83.3575L319.176 67.3118L312.891 59.8773L327.76 54.3682ZM316.662 67.4188L305.484 80.7902L302.462 63.6213L310.939 60.4656L316.662 67.4188ZM299.333 46.7198L309.656 59.0215L300.296 62.4981L303.879 82.8226L299.52 88.2514L294.974 82.9029L298.477 62.4713L289.251 59.1017L299.333 46.7198ZM287.887 60.5191L296.231 63.5678L293.289 80.8437L282.084 67.4722L287.887 60.5191ZM270.905 54.3148L285.988 59.8238L279.623 67.499L292.995 83.304L291.818 90.1769L285.213 87.7433L278.019 68.3013L268.365 70.0128L270.905 54.3148ZM267.883 72.0185L276.655 70.4674L282.726 86.9143L266.359 80.9239L267.883 72.0185ZM250.072 75.1207L265.878 72.4464L264.193 82.261L283.474 89.2409L285.881 95.7662L278.955 96.9964L262.909 83.6249L255.394 89.9095L250.072 75.1207ZM276.601 97.4242L259.406 100.446L256.277 91.942L263.096 86.219L276.601 97.4242ZM242.424 103.575L254.752 93.2524L258.202 102.586L278.527 99.0288L283.875 103.468L278.527 107.988L258.069 104.511L254.726 113.711L242.424 103.575ZM276.548 109.646L263.176 120.851L256.223 114.994L259.406 106.651L276.548 109.646ZM265.69 134.731L250.046 132.056L255.394 116.973L263.069 123.338L278.875 109.967L285.747 111.143L283.474 117.829L264.032 125.023L265.69 134.731ZM266.172 126.307L282.592 120.236L276.628 136.603L267.696 135.078L266.172 126.307ZM270.825 152.889L268.151 137.057L277.992 138.742L285.052 119.353L291.577 116.947L292.808 123.9L279.436 139.945L285.747 147.46L270.825 152.889ZM281.923 139.838L293.128 126.467L296.124 143.636L287.646 146.765L281.923 139.838ZM299.253 160.457L288.957 148.155L298.29 144.706L294.706 124.381L299.172 119.032L303.692 124.381L300.215 144.813L309.415 148.182L299.253 160.457ZM310.725 146.658L302.355 143.609L305.296 126.333L316.502 139.705L310.725 146.658ZM327.707 152.862L312.624 147.353L318.989 139.678L305.617 123.9L306.794 117.027L313.4 119.434L320.593 138.876L330.274 137.191L327.707 152.862ZM330.729 135.185L321.957 136.736L315.86 120.343L332.253 126.307L330.729 135.185ZM348.513 132.056L332.708 134.731L334.393 124.916L315.004 117.829L312.597 111.304L319.55 110.1L335.596 123.338L343.111 117.027L348.513 132.056Z" fill="#E5E7EB"/>
<path d="M239.456 149.359L229.775 132.591H249.11L239.456 149.359ZM233.091 134.49L239.456 145.535L245.82 134.49H233.091Z" fill="#E5E7EB"/>
<path d="M308.96 178.295H289.625L299.279 161.527L308.96 178.295ZM292.915 176.396H305.644L299.279 165.351L292.915 176.396Z" fill="#E5E7EB"/>
<path d="M179.605 207.097L165.084 195.036L171.582 177.171L152.996 173.989L149.706 155.269L132.003 161.794L119.781 147.219L107.72 161.741L89.8556 155.109L86.6732 173.829L67.9532 177.118L74.5052 194.822L59.9303 207.017L74.4517 219.078L67.9264 236.969L86.6464 240.151L89.9358 258.871L107.64 252.319L119.861 266.894L131.922 252.372L149.76 258.898L152.942 240.178L171.662 236.862L165.003 219.291L179.605 207.097ZM176.637 207.097L164.308 217.419L160.858 208.059L140.534 211.643L135.185 207.204L140.534 202.657L160.965 206.161L164.335 196.934L176.637 207.097ZM162.757 218.703L155.938 224.426L142.566 213.221L159.735 210.226L162.757 218.703ZM138.073 212.071L130.478 213.408L133.153 220.548L125.879 217.874L124.595 225.389L119.648 219.452L114.78 225.309L113.443 217.714L106.276 220.388L108.95 213.141L101.408 211.857L107.346 206.91L101.462 202.016L109.057 200.678L106.383 193.538L113.657 196.212L114.994 188.698L119.942 194.608L124.836 188.751L126.146 196.346L133.313 193.672L130.639 200.919L138.154 202.203L132.243 207.177L138.073 212.071ZM142.513 201.053L155.884 189.874L162.837 195.651L159.789 204.021L142.513 201.053ZM153.344 175.968L169.015 178.642L163.506 193.725L155.857 187.361L140.026 200.732L133.179 199.582L135.613 192.95L155.109 185.649L153.344 175.968ZM152.889 184.526L136.389 190.489L142.352 174.123L151.258 175.647L152.889 184.526ZM148.209 157.783L150.883 173.588L141.069 171.903L134.008 191.292L127.483 193.725L126.253 186.772L139.624 170.726L133.34 163.212L148.209 157.783ZM137.111 170.887L125.932 184.258L123.017 167.196L131.521 164.041L137.111 170.887ZM119.808 150.188L130.104 162.49L120.771 165.966L124.328 186.291L119.888 191.639L115.369 186.291L118.845 165.806L109.646 162.436L119.808 150.188ZM108.335 163.987L116.706 167.036L113.737 184.312L102.558 170.94L108.335 163.987ZM91.3532 157.783L106.437 163.292L100.071 170.967L113.443 186.772L112.266 193.645L105.634 191.211L98.44 171.769L88.7858 173.481L91.3532 157.783ZM88.251 175.46L97.1029 173.829L103.174 190.275L86.8069 184.526L88.251 175.46ZM70.4402 178.589L86.2453 175.915L84.5872 185.702L103.976 192.789L106.383 199.315L99.4295 200.545L83.3838 187.307L75.869 193.592L70.4402 178.589ZM96.9692 200.892L79.8002 203.914L76.7516 195.41L83.571 189.687L96.9692 200.892ZM62.8988 207.017L75.2005 196.721L78.6503 206.054L98.9481 202.497L104.297 206.936L98.9481 211.456L78.5166 207.979L75.147 217.179L62.8988 207.017ZM97.0226 213.06L83.6512 224.266L76.6981 218.489L79.7468 210.119L97.0226 213.06ZM86.165 238.145L70.4937 235.471L76.0028 220.388L83.6512 226.753L99.483 213.381L106.33 214.558L103.923 221.19L84.4802 228.384L86.165 238.145ZM86.6197 229.721L103.067 223.651L97.0761 240.017L88.251 238.493L86.6197 229.721ZM91.2997 256.304L88.6254 240.472L98.44 242.157L105.501 222.768L112.026 220.361L113.256 227.314L99.8841 243.36L106.196 250.875L91.2997 256.304ZM102.398 243.36L113.577 229.989L116.599 247.131L108.121 250.286L102.398 243.36ZM119.728 264.032L109.405 251.731L118.738 248.174L115.181 227.849L119.621 222.501L124.167 227.849L120.664 248.281L129.89 251.65L119.728 264.032ZM131.174 250.233L122.803 247.184L125.691 229.801L136.87 243.173L131.174 250.233ZM148.155 256.437L133.072 250.928L139.437 243.253L126.066 227.475L127.216 220.602L133.848 223.009L141.042 242.451L150.83 240.686L148.155 256.437ZM151.177 238.76L142.406 240.311L136.389 223.758L152.702 229.721L151.177 238.76ZM168.988 235.631L153.183 238.306L154.841 228.491L135.453 221.404L133.046 214.879L139.999 213.675L156.045 226.913L163.559 220.602L168.988 235.631Z" fill="#E5E7EB"/>
<path d="M59.9307 252.827L50.2498 236.059H69.5314L59.9307 252.827ZM53.4857 238.011L59.8772 249.056L66.2688 238.011H53.4857Z" fill="#E5E7EB"/>
<path d="M129.409 281.763H110.074L119.728 264.995L129.409 281.763ZM113.363 279.864H126.093L119.701 268.819L113.363 279.864Z" fill="#E5E7EB"/>
<path d="M299.279 207.097L284.758 195.036L291.256 177.171L272.536 173.989L269.247 155.269L251.677 161.794L239.456 147.219L227.314 161.741L209.53 155.109L206.348 173.829L187.628 177.118L194.18 194.822L179.605 207.017L194.1 219.078L187.601 236.969L206.187 240.151L209.477 258.871L227.314 252.319L239.536 266.894L251.383 252.372L269.247 258.898L272.43 240.178L291.15 236.862L284.678 219.291L299.279 207.097ZM296.311 207.097L283.982 217.419L280.533 208.059L260.208 211.643L254.859 207.204L260.208 202.657L280.8 206.161L284.17 196.934L296.311 207.097ZM282.431 218.703L275.612 224.426L262.24 213.221L279.409 210.226L282.431 218.703ZM257.748 212.071L250.153 213.408L252.827 220.548L245.553 217.874L244.269 225.389L239.322 219.452L234.455 225.309L233.118 217.714L225.95 220.388L228.625 213.141L221.11 211.857L227.047 206.91L221.163 202.016L228.758 200.678L226.084 193.538L233.358 196.212L234.642 188.698L239.589 194.608L244.483 188.751L245.794 196.346L252.961 193.672L250.286 200.919L257.801 202.203L251.891 207.177L257.748 212.071ZM262.08 201.053L275.451 189.874L282.405 195.651L279.356 204.021L262.08 201.053ZM272.777 175.968L288.448 178.642L282.939 193.725L275.451 187.387L259.62 200.759L252.774 199.609L255.18 192.977L274.622 185.783L272.777 175.968ZM272.563 184.526L256.143 190.596L262.08 174.123L270.985 175.647L272.563 184.526ZM267.883 157.783L270.557 173.588L260.743 171.903L253.79 191.345L247.264 193.779L246.034 186.826L259.406 170.78L252.987 163.345L267.883 157.783ZM256.731 170.887L245.553 184.258L242.531 167.089L251.035 163.934L256.731 170.887ZM239.429 150.188L249.725 162.49L240.392 165.966L243.948 186.291L239.509 191.639L234.99 186.291L238.52 165.806L229.32 162.436L239.429 150.188ZM227.956 163.987L236.327 167.036L233.358 184.312L222.18 170.94L227.956 163.987ZM211.028 157.783L226.111 163.292L219.746 170.967L233.118 186.772L231.941 193.645L225.309 191.211L218.115 171.769L208.461 173.481L211.028 157.783ZM208.006 175.46L216.778 173.829L222.848 190.275L206.482 184.526L208.006 175.46ZM190.195 178.589L206 175.915L204.342 185.702L223.731 192.789L226.138 199.315L219.291 200.571L203.246 187.2L195.731 193.485L190.195 178.589ZM216.617 200.892L199.448 203.914L196.319 195.41L203.246 189.687L216.617 200.892ZM182.574 207.017L194.875 196.721L198.325 206.054L218.65 202.497L223.998 206.936L218.65 211.456L198.218 207.979L194.848 217.179L182.574 207.017ZM216.617 213.06L203.246 224.266L196.293 218.489L199.341 210.119L216.617 213.06ZM205.92 238.145L190.249 235.471L195.758 220.388L203.246 226.753L219.078 213.381L225.924 214.558L223.49 221.19L204.075 228.384L205.92 238.145ZM206.375 229.721L222.822 223.651L216.831 240.017L207.926 238.493L206.375 229.721ZM211.055 256.304L208.38 240.472L218.195 242.157L225.255 222.768L231.78 220.361L233.011 227.314L219.639 243.36L225.95 250.875L211.055 256.304ZM221.966 243.36L233.144 229.989L236.166 247.131L227.689 250.286L221.966 243.36ZM239.295 264.032L228.972 251.731L238.306 248.281L234.749 227.956L239.188 222.608L243.734 227.956L240.231 248.388L249.457 251.757L239.295 264.032ZM250.741 250.233L242.371 247.184L245.339 229.908L256.518 243.28L250.741 250.233ZM267.723 256.437L252.64 250.928L259.005 243.253L245.633 227.475L246.783 220.602L253.415 223.009L260.609 242.451L270.263 240.766L267.723 256.437ZM270.745 238.76L262.08 240.204L256.009 223.758L272.376 229.721L270.745 238.76ZM288.555 235.631L272.75 238.306L274.408 228.491L255.127 221.404L252.72 214.879L259.673 213.675L275.719 226.913L283.234 220.602L288.555 235.631Z" fill="#E5E7EB"/>
<path d="M179.605 252.827L169.924 236.059H189.232L179.605 252.827ZM173.213 238.011L179.605 249.056L185.943 238.011H173.213Z" fill="#E5E7EB"/>
<path d="M249.083 281.763H229.748L239.402 264.995L249.083 281.763ZM233.037 279.864H245.794L239.402 268.819L233.037 279.864Z" fill="#E5E7EB"/>
<path d="M299.279 252.827L289.598 236.059H308.907L299.279 252.827ZM292.888 238.011L299.279 249.056L305.617 238.011H292.888Z" fill="#E5E7EB"/>
<path d="M119.728 310.565L105.206 298.504L111.732 280.639L93.0117 277.457L89.7223 258.737L72.2057 265.262L60.011 250.688L47.8697 265.209L30.0055 258.684L26.8231 277.404L8.10309 280.693L14.6551 298.397L0 310.485L14.5214 322.546L8.02286 340.437L26.7429 343.592L30.0322 362.312L47.6558 355.68L59.8773 370.255L71.9115 355.733L89.7758 362.259L92.9582 343.672L111.678 340.356L105.126 322.679L119.728 310.565ZM116.759 310.565L104.458 320.914L101.008 311.554L80.6832 315.138L75.3346 310.672L80.6832 306.152L101.115 309.655L104.458 300.429L116.759 310.565ZM102.907 322.171L96.0871 327.894L82.5819 316.689L99.7509 313.694L102.907 322.171ZM78.2229 315.566L70.6011 316.903L73.2754 324.043L66.0281 321.369L64.7177 328.937L59.7435 323L54.8763 328.937L53.5392 321.342L46.3989 324.016L49.0731 316.769L41.5584 315.485L47.4686 310.511L41.6119 305.644L49.2069 304.307L46.5326 297.167L53.7799 299.841L55.0635 292.326L60.0377 298.236L64.9049 292.38L66.2421 299.975L73.3824 297.3L70.7081 304.548L78.2496 305.831L72.3127 310.805L78.2229 315.566ZM82.6354 304.548L96.0069 293.369L102.96 299.146L99.9113 307.543L82.6354 304.548ZM93.6 279.436L109.298 282.11L103.789 297.193L96.1406 290.829L80.2286 304.093L73.3557 302.943L75.7893 296.311L95.2313 289.117L93.6 279.436ZM93.1454 287.86L76.7253 293.957L82.6889 277.564L91.621 279.088L93.1454 287.86ZM88.2514 261.304L90.9257 277.109L81.325 275.451L74.2382 294.84L67.7129 297.274L66.4827 290.32L79.8542 274.275L73.5429 266.76L88.2514 261.304ZM77.1531 274.355L65.9479 287.726L62.9527 270.557L71.5372 267.429L77.1531 274.355ZM59.8238 253.656L70.1198 265.958L60.7865 269.434L64.3701 289.759L59.9307 295.107L55.3845 289.759L58.8878 269.327L49.6615 265.958L59.8238 253.656ZM48.4848 267.429L56.8286 270.477L53.8869 287.753L42.6816 274.382L48.4848 267.429ZM31.5031 261.224L46.5861 266.733L40.1143 274.435L53.4857 290.24L52.309 297.113L45.6768 294.679L38.5097 275.237L28.8288 276.949L31.5031 261.224ZM28.4811 278.901L37.2528 277.377L43.3234 293.797L26.9568 287.833L28.4811 278.901ZM10.6971 282.057L26.5022 279.383L24.8174 289.17L44.2059 296.257L46.6128 302.783L39.6864 304.013L23.6407 290.641L16.1259 296.926L10.6971 282.057ZM37.2261 304.36L20.0571 307.382L16.9015 298.878L23.7477 293.155L37.2261 304.36ZM3.02194 310.485L15.3237 300.189L18.72 309.522L39.0178 305.965L44.3664 310.404L39.0178 314.924L18.72 311.447L15.2702 320.647L3.02194 310.485ZM37.1458 316.528L23.7744 327.734L16.8213 321.957L19.8699 313.587L37.1458 316.528ZM26.2882 341.613L10.6169 338.939L16.0457 323.856L23.7209 330.221L39.5259 316.849L46.3721 318.026L43.9653 324.658L24.6034 331.959L26.2882 341.613ZM26.7696 333.189L43.1897 327.119L37.2261 343.485L28.2939 341.961L26.7696 333.189ZM31.4229 359.772L28.7486 343.94L38.5899 345.625L45.4629 326.263L51.9881 323.856L53.1915 330.809L39.8201 346.855L46.1314 354.37L31.4229 359.772ZM42.5211 346.721L53.6997 333.35L56.7216 350.331L48.1371 353.541L42.5211 346.721ZM59.8505 367.393L49.5278 355.092L58.8878 351.642L55.3042 331.317L59.7703 325.969L64.2898 331.317L60.7865 351.749L70.0128 355.118L59.8505 367.393ZM71.3232 353.594L62.9527 350.545L65.8944 333.269L77.0997 346.641L71.3232 353.594ZM88.2514 359.798L73.1685 354.289L79.5065 346.614L66.3223 330.809L67.499 323.963L74.1045 326.37L81.2983 345.812L90.9792 344.127L88.2514 359.798ZM91.2734 342.121L82.5017 343.672L76.4043 327.226L92.7977 333.189L91.2734 342.121ZM109.057 338.992L93.2524 341.667L94.9372 331.852L75.5486 324.765L73.1685 318.24L80.1483 317.037L96.1941 330.408L103.709 324.097L109.057 338.992Z" fill="#E5E7EB"/>
<path d="M69.5315 385.231H50.2232L59.8774 368.463L69.5315 385.231ZM53.4858 383.332H66.2154L59.8506 372.287L53.4858 383.332Z" fill="#E5E7EB"/>
<path d="M239.402 310.565L224.881 298.504L231.406 280.64L212.686 277.457L209.397 258.737L191.693 265.289L179.498 250.714L167.437 265.236L149.76 258.684L146.578 277.404L127.858 280.693L134.41 298.397L119.835 310.592L134.356 322.653L127.831 340.544L146.551 343.699L149.84 362.419L167.33 355.68L179.552 370.255L191.586 355.734L209.45 362.259L212.632 343.673L231.352 340.356L224.8 322.679L239.402 310.565ZM236.434 310.565L224.132 320.914L220.682 311.554L200.357 315.138L195.009 310.672L200.357 306.152L220.789 309.656L224.132 300.429L236.434 310.565ZM222.581 322.171L215.761 327.894L202.256 316.689L219.425 313.694L222.581 322.171ZM197.897 315.566L190.275 316.903L192.95 324.043L185.702 321.369L184.526 328.937L179.552 323L174.551 328.937L173.213 321.342L166.073 324.017L168.747 316.769L161.233 315.486L167.143 310.511L161.286 305.644L168.881 304.307L166.207 297.167L173.454 299.841L174.738 292.326L179.712 298.236L184.526 292.219L185.863 299.814L193.003 297.14L190.329 304.387L197.87 305.671L191.933 310.645L197.897 315.566ZM202.31 304.548L215.681 293.369L222.634 299.146L219.586 307.543L202.31 304.548ZM213.007 279.463L228.705 282.137L223.196 297.22L215.547 290.855L199.716 304.093L192.843 302.943L195.276 296.311L214.718 289.117L213.007 279.463ZM212.552 287.887L196.132 293.984L202.096 277.591L211.028 279.115L212.552 287.887ZM207.899 261.331L210.573 277.136L200.999 275.451L193.912 294.84L187.387 297.274L186.157 290.321L199.528 274.275L193.217 266.76L207.899 261.331ZM196.801 274.382L185.595 287.753L182.573 270.584L191.211 267.429L196.801 274.382ZM179.471 253.683L189.874 265.958L180.541 269.434L184.125 289.759L179.685 295.108L175.139 289.759L178.642 269.327L169.416 265.958L179.471 253.683ZM168.159 267.429L176.503 270.504L173.561 287.78L162.356 274.409L168.159 267.429ZM151.151 261.224L166.26 266.733L159.896 274.409L173.133 290.214L171.957 297.086L165.324 294.653L158.157 275.211L148.476 276.922L151.151 261.224ZM148.155 278.928L156.927 277.404L163.131 293.824L146.765 287.86L148.155 278.928ZM130.345 282.057L146.15 279.383L144.411 289.09L163.8 296.177L166.207 302.702L159.28 303.933L143.235 290.561L135.72 296.846L130.345 282.057ZM156.847 304.361L139.705 307.382L136.549 298.878L143.368 293.155L156.847 304.361ZM122.696 310.485L134.998 300.189L138.474 309.522L158.772 305.965L164.121 310.404L158.772 314.924L138.314 311.447L134.971 320.647L122.696 310.485ZM156.82 316.529L143.449 327.734L136.389 321.957L139.437 313.587L156.82 316.529ZM145.962 341.613L130.291 338.939L135.8 323.856L143.475 330.221L159.28 316.849L166.127 318.026L163.72 324.658L144.411 331.959L145.962 341.613ZM146.417 333.189L162.864 327.119L156.9 343.485L147.968 341.961L146.417 333.189ZM151.097 359.772L148.423 343.94L158.264 345.625L165.217 326.263L171.743 323.856L172.946 330.809L159.575 346.855L165.886 354.37L151.097 359.772ZM162.195 346.721L173.374 333.35L176.503 350.332L168.025 353.487L162.195 346.721ZM179.525 367.393L169.202 355.092L178.562 351.642L174.978 331.317L179.445 325.969L183.964 331.317L180.461 351.749L189.687 355.118L179.525 367.393ZM190.997 353.594L182.627 350.545L185.569 333.27L196.774 346.641L190.997 353.594ZM207.979 359.798L192.896 354.289L199.234 346.614L185.863 330.809L187.04 323.963L193.645 326.37L200.839 345.812L210.52 344.127L207.979 359.798ZM211.001 342.121L202.229 343.673L196.132 327.226L212.525 333.189L211.001 342.121ZM228.785 338.993L212.98 341.667L214.665 331.852L195.223 324.872L192.843 318.24L199.796 317.037L215.842 330.408L223.356 324.097L228.785 338.993Z" fill="#E5E7EB"/>
<path d="M119.728 356.295L110.047 339.634H129.382L119.728 356.295ZM113.363 341.426L119.728 352.471L126.093 341.426H113.363Z" fill="#E5E7EB"/>
<path d="M189.206 385.231H169.897L179.525 368.463L189.206 385.231ZM173.16 383.332H185.89L179.525 372.287L173.16 383.332Z" fill="#E5E7EB"/>
<path d="M359.076 310.565L344.555 298.504L351.08 280.64L332.36 277.457L329.071 258.737L311.367 265.289L299.172 250.714L287.111 265.236L269.247 258.71L266.065 277.43L247.345 280.72L254.057 298.29L239.482 310.485L254.057 322.546L247.532 340.437L266.252 343.592L269.541 362.312L287.245 355.76L299.467 370.335L311.501 355.814L329.365 362.339L332.547 343.753L351.267 340.437L344.715 322.76L359.076 310.565ZM356.108 310.565L343.806 320.888L340.33 311.528L320.032 315.111L314.683 310.645L320.032 306.126L340.463 309.629L343.806 300.403L356.108 310.565ZM342.309 322.171L335.489 327.894L321.984 316.689L339.153 313.694L342.309 322.171ZM317.571 315.566L309.95 316.903L312.624 324.043L305.377 321.369L304.066 328.937L299.092 323L294.171 328.937L292.834 321.342L285.694 324.017L288.368 316.769L280.854 315.486L286.764 310.511L280.907 305.644L288.502 304.307L285.828 297.167L293.075 299.841L294.359 292.326L299.333 298.236L304.2 292.38L305.537 299.975L312.678 297.3L310.003 304.548L317.545 305.831L311.608 310.806L317.571 315.566ZM321.984 304.548L335.355 293.369L342.335 299.146L339.26 307.543L321.984 304.548ZM332.681 279.463L348.379 282.137L342.87 297.22L335.195 290.855L319.39 304.093L312.517 302.943L314.951 296.311L334.393 289.117L332.681 279.463ZM332.227 287.887L315.806 293.984L321.77 277.591L330.702 279.115L332.227 287.887ZM327.573 261.331L330.248 277.136L320.433 275.451L313.346 294.84L306.821 297.274L305.591 290.321L318.962 274.275L312.891 266.814L327.573 261.331ZM316.475 274.382L305.27 287.753L302.248 270.584L310.752 267.429L316.475 274.382ZM299.146 253.683L309.442 265.985L300.108 269.461L303.692 289.786L299.253 295.134L294.706 289.786L298.21 269.354L288.983 265.985L299.146 253.683ZM287.833 267.429L296.177 270.477L293.235 287.753L282.03 274.382L287.833 267.429ZM270.825 261.224L285.935 266.733L279.57 274.409L292.808 290.214L291.631 297.086L284.999 294.653L277.832 275.211L268.151 276.922L270.825 261.224ZM267.83 278.901L276.601 277.377L282.672 293.797L266.305 287.833L267.83 278.901ZM250.019 282.03L265.824 279.356L264.139 289.144L283.528 296.231L285.935 302.756L279.008 303.986L262.963 290.615L255.448 296.899L250.019 282.03ZM276.521 304.334L259.406 307.382L256.25 298.878L263.069 293.155L276.521 304.334ZM242.371 310.485L254.672 300.189L258.149 309.522L278.447 305.965L283.795 310.404L278.447 314.924L257.988 311.447L254.646 320.647L242.371 310.485ZM276.494 316.529L263.123 327.734L256.17 321.957L259.219 313.587L276.494 316.529ZM265.637 341.613L249.966 338.939L255.475 323.856L263.15 330.221L278.955 316.849L285.801 318.026L283.394 324.658L263.952 331.852L265.637 341.613ZM266.091 333.189L282.538 327.119L276.575 343.485L267.643 341.961L266.091 333.189ZM270.771 359.772L268.097 343.94L277.939 345.625L284.999 326.236L291.524 323.829L292.727 330.782L279.356 346.828L285.667 354.343L270.771 359.772ZM281.87 346.721L293.048 333.35L296.07 350.492L287.593 353.648L281.87 346.721ZM299.199 367.393L288.876 355.092L298.236 351.642L294.653 331.317L299.119 325.969L303.638 331.317L300.135 351.749L309.361 355.118L299.199 367.393ZM310.672 353.594L302.194 350.545L305.136 333.27L316.341 346.641L310.672 353.594ZM327.654 359.798L312.571 354.289L318.909 346.614L305.537 330.809L306.714 323.963L313.319 326.37L320.513 345.812L330.194 344.127L327.654 359.798ZM330.675 342.121L321.904 343.673L315.806 327.226L332.2 333.189L330.675 342.121ZM348.459 338.993L332.654 341.667L334.339 331.852L314.951 324.765L312.517 318.24L319.47 317.037L335.516 330.408L343.031 324.097L348.459 338.993Z" fill="#E5E7EB"/>
<path d="M239.402 356.295L229.721 339.634H249.056L239.402 356.295ZM233.037 341.426L239.402 352.471L245.767 341.426H233.037Z" fill="#E5E7EB"/>
<path d="M308.88 385.231H289.572L299.199 368.463L308.88 385.231ZM292.834 383.332H305.564L299.199 372.287L292.834 383.332Z" fill="#E5E7EB"/>
<path d="M12.168 45.4629L30.0322 51.9881L33.2146 33.4018L51.9346 30.0857L45.4629 12.3819L59.9842 0.160457L59.797 0H56.8018L57.0158 0.160457L44.7141 10.4832L41.2375 1.1232L20.9397 4.70674L15.5643 0.267429L15.8585 0H12.9168L12.5959 0.267429L18.4526 5.13463L10.8576 6.47177L13.5319 13.6121L6.28457 10.9378L4.97417 18.5061L0 12.5959V15.5643L4.54629 20.9129L1.04297 41.3979L10.2693 44.7675L0 56.989V59.9575V60.0912L12.168 45.4629ZM31.5566 31.7438L22.7849 33.2949L16.7143 16.8213L33.0809 22.7849L31.5566 31.7438ZM40.1143 3.28937L43.2432 11.7936L36.3168 17.4898L22.9454 6.28457L40.1143 3.28937ZM13.3714 8.02286L20.3246 6.81943L36.3703 20.0571L43.885 13.7458L49.4208 28.6683L33.6158 31.3426L35.3006 21.528L15.8318 14.4679L13.3714 8.02286ZM7.75543 13.5586L14.3609 16.0457L21.5547 35.4878L31.2357 33.803L28.5614 49.4743L13.3714 43.885L19.7362 36.2366L6.57874 20.4315L7.75543 13.5586ZM3.1824 40.1143L6.15086 22.8919L17.3561 36.2633L11.5529 43.2165L3.1824 40.1143Z" fill="#E5E7EB"/>
<path d="M74.5055 12.1413L67.9803 30.0322L86.5666 33.2146L89.8827 51.9346L107.56 45.4629L119.781 60.0377L131.842 45.4629L149.76 51.9614L152.942 33.3751L171.662 30.059L165.084 12.3819L179.659 0.160457L179.471 0H176.503L176.717 0.160457L164.415 10.4832L160.912 1.1232L140.587 4.70674L135.239 0.267429L135.533 0H132.591L132.27 0.267429L138.127 5.13463L130.532 6.47177L133.206 13.6121L125.959 10.9378L124.675 18.4526L119.674 12.5959L114.807 18.4526L113.47 10.8309L106.33 13.3714L109.004 6.12411L101.489 4.84046L107.346 0H104.297L98.9485 4.51954L78.5437 1.04297L75.1741 10.2425L62.9526 0H60.0911L74.5055 12.1413ZM86.6735 22.8384L103.12 16.7678L97.1567 33.1344L88.2514 31.5566L86.6735 22.8384ZM151.231 31.7705L142.459 33.3216L136.389 16.8213L152.755 22.7849L151.231 31.7705ZM159.682 3.28937L162.811 11.7936L155.991 17.4898L142.62 6.28457L159.682 3.28937ZM133.099 8.02286L140.052 6.81943L156.098 20.0571L163.613 13.7458L169.149 28.6683L153.344 31.3426L155.002 21.528L135.506 14.4679L133.099 8.02286ZM127.43 13.6389L134.035 16.0457L141.229 35.4878L150.91 33.803L148.236 49.4743L133.153 43.9653L139.518 36.3168L126.253 20.4315L127.43 13.6389ZM125.825 22.9721L137.03 36.3435L131.227 43.2967L122.857 40.1143L125.825 22.9721ZM119.674 15.6446L124.221 20.9931L120.717 41.4247L129.944 44.7943L119.781 57.0158L109.459 44.7141L118.819 41.2642L115.235 20.9397L119.674 15.6446ZM113.63 22.8384L116.652 40.1143L108.175 43.2432L102.452 36.4238L113.63 22.8384ZM111.999 13.3714L113.203 20.3246L99.9647 36.3703L106.276 43.885L91.3535 49.4208L88.6792 33.589L98.4939 35.2738L105.581 15.8853L111.999 13.3714ZM79.9076 3.12891L97.1835 6.07063L83.812 17.2759L76.7519 11.5529L79.9076 3.12891ZM76.0566 13.3714L83.7051 19.8165L99.5368 6.44503L106.383 7.62171L103.976 14.2539L84.5341 21.5547L86.2189 31.2089L70.5476 28.5346L76.0566 13.3714Z" fill="#E5E7EB"/>
<path d="M194.18 12.1413L187.655 30.0322L206.375 33.2146L209.664 51.9346L227.314 45.4629L239.536 60.0377L251.517 45.4629L269.381 51.9881L272.563 33.4018L291.283 30.0857L284.704 12.4087L299.333 0.160457L299.146 0H296.15L296.364 0.160457L284.036 10.4832L280.586 1.1232L260.261 4.70674L254.913 0.267429L255.207 0H252.265L251.944 0.267429L257.801 5.13463L250.206 6.47177L252.88 13.6121L245.633 10.9378L244.349 18.4526L239.349 12.5959L234.481 18.4526L233.144 10.8309L226.004 13.3714L228.678 6.12411L221.163 4.84046L227.02 0H224.052L218.703 4.51954L198.218 1.04297L194.848 10.2425L182.627 0H179.766L194.18 12.1413ZM206.348 22.8384L222.795 16.7678L216.831 33.1344L207.899 31.6101L206.348 22.8384ZM270.905 31.7705L262.08 33.2681L256.063 16.8213L272.429 22.7849L270.905 31.7705ZM279.356 3.34286L282.485 11.8471L275.665 17.5433L262.08 6.28457L279.356 3.34286ZM252.773 8.02286L259.727 6.81943L275.772 20.0571L283.287 13.7458L288.823 28.5881L273.018 31.2624L274.676 21.4478L255.18 14.4679L252.773 8.02286ZM247.104 13.5586L253.709 15.9655L260.903 35.4075L270.557 33.7227L267.883 49.3941L252.8 43.885L259.165 36.2366L246.034 20.4315L247.104 13.5586ZM245.499 22.8919L256.705 36.2633L250.902 43.2165L242.531 40.1143L245.499 22.8919ZM239.349 15.5643L243.895 20.9129L240.392 41.3445L249.618 44.7141L239.456 56.9355L229.133 44.6338L238.493 41.184L234.909 20.8594L239.349 15.5643ZM233.305 22.8384L236.327 40.1143L227.849 43.1362L222.126 36.3168L233.305 22.8384ZM231.673 13.3714L232.877 20.3246L219.505 36.3703L225.817 43.885L210.894 49.4208L208.22 33.589L218.035 35.2738L225.121 15.8853L231.673 13.3714ZM199.582 3.12891L216.858 6.07063L203.486 17.2759L196.533 11.4994L199.582 3.12891ZM195.731 13.3714L203.379 19.7362L219.211 6.3648L226.057 7.54149L223.651 14.1737L204.208 21.5547L205.92 31.2089L190.249 28.5346L195.731 13.3714Z" fill="#E5E7EB"/>
<path d="M313.854 12.1413L307.329 30.0322L326.049 33.2146L329.338 51.9346L346.908 45.4629L359.023 59.904V56.8553L348.807 44.6873L358.167 41.2375L354.584 20.9129L359.023 15.5643V12.5959L354.156 18.4526L352.819 10.8309L345.678 13.5051L348.352 6.25783L340.838 4.97417L346.694 0H343.726L338.377 4.51954L317.892 1.04297L314.523 10.2425L302.194 0H299.52L313.854 12.1413ZM326.022 22.8384L342.469 16.7678L336.505 33.1344L327.573 31.6101L326.022 22.8384ZM352.979 22.8384L356.001 40.1143L347.657 43.1362L341.934 36.3168L352.979 22.8384ZM351.321 13.3714L352.551 20.3246L339.18 36.3703L345.491 43.885L330.568 49.4208L327.894 33.589L337.709 35.2738L344.796 15.8853L351.321 13.3714ZM319.229 3.12891L336.505 6.07063L323.134 17.2759L316.181 11.4994L319.229 3.12891ZM315.405 13.3714L323.054 19.7362L338.885 6.3648L345.732 7.54149L343.325 14.1737L323.883 21.3675L325.568 31.0217L309.896 28.3474L315.405 13.3714Z" fill="#E5E7EB"/>
<path d="M12.1145 252.372L29.9787 258.898L33.1611 240.178L51.8811 236.862L45.4629 219.291L60.0645 207.07L45.4629 195.036L51.9881 177.171L33.2681 173.989L29.9787 155.269L12.3285 161.794L0 147.219V147.353V150.348L0.133714 150.188L10.4297 162.49L1.09646 165.966L4.65326 186.291L0.213943 191.639L0 191.372V194.34L0.213943 194.608L5.10789 188.751L6.41829 196.346L13.5854 193.672L10.9111 200.919L18.4258 202.203L12.5424 207.204L18.3991 212.071L10.6971 213.408L13.3714 220.548L6.12411 217.874L4.89394 225.442L0 219.586V222.554L4.4928 227.903L0.989486 248.334L10.2158 251.704L0 263.925V266.894L12.1145 252.372ZM31.5031 238.653L22.7314 240.204L16.6608 223.758L33.0274 229.721L31.5031 238.653ZM33.2146 184.526L16.7945 190.489L22.7582 174.123L31.6635 175.647L33.2146 184.526ZM6.25783 184.526L3.23589 167.196L11.7401 164.041L17.4631 170.887L6.25783 184.526ZM8.02286 193.779L6.79269 186.826L20.1641 170.78L13.6389 163.345L28.5346 157.783L31.2089 173.588L21.3943 171.957L14.4411 191.345L8.02286 193.779ZM13.6121 199.475L16.0457 192.843L35.461 185.649L33.7762 175.968L49.4475 178.642L43.9385 193.725L36.2901 187.361L20.3781 200.571L13.6121 199.475ZM43.2432 195.651L40.1143 204.021L22.8384 201.053L36.2098 189.874L43.2432 195.651ZM15.5109 207.204L20.8594 202.657L41.291 206.161L44.6606 196.934L56.9088 207.097L44.6338 217.419L41.184 208.059L20.8594 211.643L15.5109 207.204ZM43.0827 218.703L36.2633 224.426L22.8919 213.221L40.0608 210.226L43.0827 218.703ZM13.3714 214.879L20.3246 213.675L36.3703 226.913L43.885 220.602L49.4208 235.524L33.6158 238.199L35.2738 228.384L15.7783 221.404L13.3714 214.879ZM7.6752 220.495L14.3074 222.902L21.3943 242.344L31.1554 240.686L28.4811 256.357L13.3714 250.821L19.7362 243.146L6.52526 227.314L7.6752 220.495ZM3.12891 247.077L6.09737 229.801L17.2759 243.173L11.4994 250.126L3.12891 247.077Z" fill="#E5E7EB"/>
<path d="M329.205 155.109L326.022 173.829L307.302 177.118L313.854 194.822L299.279 207.016L313.774 219.077L307.275 236.968L325.862 240.151L329.151 258.871L346.855 252.319L359.023 266.813V263.845L348.754 251.624L358.087 248.174L354.53 227.849L358.969 222.501V219.559L354.102 225.416L352.765 217.821L345.598 220.495L348.272 213.248L340.757 211.964L346.694 207.016L340.811 202.123L348.406 200.785L345.732 193.645L353.006 196.319L354.289 188.805L359.023 194.447V191.372L354.717 186.237L358.194 165.806L348.994 162.436L359.023 150.348V147.38L347.069 161.741L329.205 155.109ZM327.68 175.353L336.452 173.829L342.523 190.275L326.263 184.526L327.68 175.353ZM325.969 229.614L342.309 223.651L336.318 240.017L327.413 238.493L325.969 229.614ZM352.926 229.614L355.947 246.756L347.47 249.912L341.72 243.36L352.926 229.614ZM351.267 220.201L352.498 227.154L339.126 243.2L345.438 250.714L330.515 256.25L327.841 240.418L337.655 242.103L344.715 222.715L351.267 220.201ZM345.678 214.504L343.245 221.137L323.829 228.331L325.514 237.985L309.843 235.31L315.352 220.227L323 226.592L338.832 213.221L345.678 214.504ZM316.047 218.489L319.069 210.119L336.372 213.06L323 224.266L316.047 218.489ZM343.672 206.936L338.324 211.456L317.892 207.979L314.523 217.179L302.194 207.016L314.496 196.72L317.946 206.054L338.27 202.497L343.672 206.936ZM316.101 195.41L322.92 189.687L336.291 200.892L319.123 203.914L316.101 195.41ZM345.812 199.234L338.859 200.464L322.813 187.227L315.298 193.511L309.763 178.589L325.568 175.915L323.909 185.702L343.298 192.789L345.812 199.234ZM351.508 193.645L344.983 191.211L337.789 171.769L328.135 173.481L330.809 157.783L345.892 163.292L339.527 170.967L352.899 186.772L351.508 193.645ZM356.054 167.036L353.006 184.312L341.827 170.94L347.657 163.987L356.054 167.036Z" fill="#E5E7EB"/>
<path d="M45.4629 401.972L51.9614 384.108L33.2414 380.925L29.952 362.205L12.2482 368.757L0 354.156V357.124L10.3227 369.426L0.962743 372.903L4.59977 393.12L0.160457 398.469H0V401.437L0.160457 401.624L5.02766 395.794L6.3648 403.389L13.5051 400.715L10.8309 407.962L18.3456 409.246L12.4354 414.22H15.4574L20.8059 409.674L41.2375 413.177L44.6606 403.817L56.8821 413.98H59.8238L59.9842 413.846L45.4629 401.972ZM33.2681 391.275L16.8213 397.372L22.8117 380.979L31.717 382.503L33.2681 391.275ZM6.31131 391.275L3.1824 374.133L11.6866 370.977L17.3829 377.823L6.31131 391.275ZM7.94263 400.688L6.7392 393.735L19.9769 377.689L13.6923 370.175L28.5881 364.666L31.2624 380.471L21.3943 378.893L14.3342 398.281L7.94263 400.688ZM40.0341 410.904L22.7849 407.962L36.1563 396.784L43.1095 402.56L40.0341 410.904ZM43.7781 400.635L36.1296 394.297L20.2978 407.668L13.3714 406.492L15.7783 399.859L35.2203 392.665L33.5355 382.985L49.2069 385.659L43.7781 400.635Z" fill="#E5E7EB"/>
<path d="M165.03 401.972L171.529 384.108L152.809 380.925L149.519 362.205L131.816 368.757L119.594 354.182L107.533 368.704L89.6688 362.179L86.4864 380.898L67.7664 384.188L74.3184 401.892L59.7435 414.086L59.9307 414.274H62.8992L62.712 414.086L75.0137 403.79L78.4635 413.124L98.7881 409.54L104.137 414.006L103.816 414.274H106.971L107.319 413.979L101.436 409.112L109.031 407.775L106.356 400.635L113.63 403.309L114.914 395.794L119.861 401.704L124.702 395.794L126.039 403.389L133.179 400.715L130.505 407.962L138.02 409.246L132.11 414.22H135.078L140.427 409.674L160.858 413.177L164.335 403.817L176.556 413.979H179.498L179.658 413.846L165.03 401.972ZM152.835 391.275L136.389 397.426L142.379 381.032L151.284 382.557L152.835 391.275ZM88.2514 382.423L97.0231 380.898L103.094 397.319L86.7271 391.355L88.2514 382.423ZM79.8007 410.877L76.6718 402.373L83.4912 396.65L96.8626 407.855L79.8007 410.877ZM106.383 406.197L99.4299 407.427L83.3842 394.056L75.8695 400.341L70.3337 385.418L86.1387 382.744L84.4807 392.532L103.869 399.619L106.383 406.197ZM112.079 400.608L105.447 398.174L98.2532 378.732L88.5991 380.444L91.2734 364.746L106.356 370.255L99.9915 377.93L113.363 393.735L112.079 400.608ZM113.657 391.275L102.479 377.903L108.255 370.923L116.626 373.972L113.657 391.275ZM119.808 398.602L115.262 393.254L118.765 372.822L109.646 369.372L119.808 357.124L130.131 369.426L120.771 372.902L124.354 393.227L119.808 398.602ZM125.852 391.328L122.83 374.159L131.334 371.004L137.03 377.85L125.852 391.328ZM127.483 400.742L126.28 393.789L139.651 377.743L133.367 370.228L148.262 364.719L150.937 380.524L141.122 378.839L134.062 398.228L127.483 400.742ZM159.575 410.957L142.325 408.016L155.697 396.837L162.65 402.614L159.575 410.957ZM163.319 400.688L155.67 394.35L139.838 407.722L133.126 406.491L135.533 399.859L155.109 392.585L153.424 382.904L169.095 385.579L163.319 400.688Z" fill="#E5E7EB"/>
<path d="M284.704 401.972L291.203 384.108L272.483 380.925L269.167 362.205L251.49 368.757L239.268 354.182L227.314 368.677L209.45 362.152L206.268 380.872L187.548 384.161L194.073 401.865L179.525 414.06L179.712 414.247H182.68L182.493 414.06L194.795 403.764L198.245 413.097L218.569 409.513L223.918 413.979L223.597 414.247H226.565L226.913 413.953L221.03 409.085L228.625 407.748L225.95 400.608L233.224 403.282L234.508 395.768L239.456 401.678L244.376 395.794L245.713 403.389L252.854 400.715L250.179 407.962L257.694 409.246L251.784 414.22H254.752L260.101 409.674L280.533 413.177L284.009 403.817L296.231 413.979H299.172L299.333 413.846L284.704 401.972ZM272.51 391.275L256.063 397.372L262.08 381.032L270.985 382.557L272.51 391.275ZM207.952 382.423L216.724 380.898L222.795 397.319L206.428 391.355L207.952 382.423ZM199.502 410.85L196.373 402.346L203.246 396.623L216.617 407.829L199.502 410.85ZM226.084 406.17L219.131 407.401L203.085 394.029L195.571 400.314L190.035 385.391L205.84 382.717L204.182 392.505L223.57 399.592L226.084 406.17ZM231.78 400.581L225.148 398.148L217.954 378.706L208.3 380.417L210.974 364.719L226.057 370.228L219.693 377.903L233.064 393.708L231.78 400.581ZM233.358 391.248L222.18 377.877L227.956 370.897L236.327 373.945L233.358 391.248ZM239.509 398.576L234.963 393.227L238.466 372.795L229.24 369.453L239.402 357.204L249.725 369.506L240.365 372.983L243.948 393.307L239.509 398.576ZM245.553 391.301L242.531 374.133L251.035 370.977L256.731 377.823L245.553 391.301ZM247.184 400.715L245.981 393.762L259.352 377.716L253.068 370.201L267.963 364.692L270.638 380.497L260.823 378.813L253.763 398.201L247.184 400.715ZM279.276 410.931L262.08 407.989L275.451 396.81L282.405 402.587L279.276 410.931ZM283.02 400.661L275.451 394.323L259.62 407.695L252.8 406.491L255.207 399.859L274.649 392.665L272.964 382.984L288.636 385.659L283.02 400.661Z" fill="#E5E7EB"/>
<path d="M302.194 413.953L314.496 403.657L317.946 412.99L338.27 409.406L343.619 413.873L343.298 414.14H346.267L346.587 413.846L340.731 408.979L348.326 407.641L345.651 400.501L352.926 403.175L354.209 395.661L358.996 401.357V398.469L354.61 393.12L358.114 372.689L348.887 369.346L358.996 357.178V354.209L346.989 368.65L329.124 362.125L325.942 380.845L307.222 384.134L313.747 401.838L299.199 414.033L299.386 414.22H302.355L302.194 413.953ZM319.176 410.851L316.047 402.346L322.867 396.623L336.238 407.829L319.176 410.851ZM347.657 370.924L356.028 373.972L353.006 391.248L341.827 377.877L347.657 370.924ZM330.675 364.719L345.758 370.228L339.394 377.903L352.765 393.708L351.588 400.581L344.956 398.148L337.762 378.706L328.108 380.417L330.675 364.719ZM327.627 382.423L336.398 380.899L342.469 397.319L326.102 391.355L327.627 382.423ZM309.816 385.552L325.621 382.878L323.936 392.665L343.352 399.752L345.758 406.278L338.805 407.508L322.76 394.136L315.245 400.421L309.816 385.552Z" fill="#E5E7EB"/>
<path d="M0.106971 58.0586L0 58.2725V62.07L0.106971 61.8828L6.49851 72.9276H0V74.8264H9.78789L0.106971 58.0586Z" fill="#E5E7EB"/>
<path d="M352.792 72.9278L359.023 62.0968V58.2727L349.476 74.8264H359.023V72.9278H352.792Z" fill="#E5E7EB"/>
<path d="M6.47177 134.49L0.106971 145.535L0 145.347V149.145L0.106971 149.359L9.76114 132.591H0V134.49H6.47177Z" fill="#E5E7EB"/>
<path d="M352.765 134.49H359.023V132.591H349.449L359.023 149.145V145.321L352.765 134.49Z" fill="#E5E7EB"/>
<path d="M0.0534857 268.819L6.44503 279.864H0V281.763H9.7344L0.0534857 264.995L0 265.102V268.926L0.0534857 268.819Z" fill="#E5E7EB"/>
<path d="M359.023 281.763V279.864H352.738L359.023 268.926V265.102L349.422 281.763H359.023Z" fill="#E5E7EB"/>
<path d="M6.41829 341.426L0.0534857 352.471L0 352.364V356.188L0.0534857 356.295L9.70766 339.527H0V341.426H6.41829Z" fill="#E5E7EB"/>
<path d="M359.022 356.161V352.364L352.684 341.426H359.022V339.527H349.394L359.022 356.161Z" fill="#E5E7EB"/>
</g>
<defs>
<clipPath id="clip0_241_9669">
<rect width="360" height="414.514" fill="white"/>
</clipPath>
</defs>
</svg>
