<svg width="720" height="417" viewBox="0 0 720 417" fill="none" xmlns="http://www.w3.org/2000/svg">
<path d="M719.998 20.612V19.3415L719.698 19.4712L719.597 19.512L711.653 22.9009L705.208 25.6509L703.268 9.67435L693.723 2.49784L690.413 0.00960706H688.468L677.768 8.05315V0.00960706H676.603V8.9298L661.608 20.2037L644.943 15.7364L637.618 0.00960706H636.328L636.498 0.374676L636.528 0.439524L643.473 15.3425L627.118 10.9593L616.713 23.3692V7.16686L601.378 0.00960706H598.618L583.278 7.16686V23.3692L572.878 10.9593L556.528 15.3425L563.553 0.249784L563.608 0.132098L563.668 0.00240174H562.378L555.053 15.7292L538.388 20.1965L523.393 8.92255V0.00960706H522.238V8.05315L514.268 2.07033L511.528 0.00960706H509.583L496.925 9.5254L496.889 9.55425L496.798 9.6167L496.753 9.72955C496.746 9.74275 496.74 9.7564 496.736 9.7704C496.721 9.80635 496.711 9.8444 496.707 9.8833C496.695 9.94335 496.688 10.013 496.678 10.0994L496.657 10.2723C496.645 10.3684 496.63 10.4837 496.613 10.623L496.078 14.9702L495.694 18.1286C495.353 20.941 495.022 23.6742 494.84 25.1945L494.785 25.6509L481.225 19.8675L480.238 19.4375L480.13 19.3919L480.01 19.3415L479.703 19.4712L479.609 19.512L472.131 22.7015L465.219 25.6509L463.282 9.67435L454.767 3.27361L450.413 0.00960706H448.469L437.77 8.05315V0.00960706H436.601V8.9298L430.52 13.4931L421.607 20.1941L404.946 15.7268L399.764 4.6066C398.752 2.445 397.914 0.63647 397.619 0H396.33L401.416 10.9112L403.475 15.3329L387.119 10.9593L376.712 23.3692V7.16686L361.381 0.00960706H358.616L343.278 7.16686V23.3692L338.958 18.2054L332.879 10.9593L329.488 11.8671L316.528 15.3425L322.578 2.35854L323.668 0.00960706H322.379L315.052 15.7364L298.391 20.2037L283.396 8.9298V0.00960706H282.239V8.05315L271.528 0.00960706H269.584L256.926 9.5254L256.895 9.54945L256.838 9.59505L256.802 9.6527C256.781 9.682 256.763 9.7134 256.749 9.7464C256.705 9.8616 256.681 9.9834 256.677 10.1066L256.139 14.5571L255.705 18.1286C255.381 20.8186 255.045 23.5734 254.858 25.1345L254.795 25.6509L243.119 20.6648L240.119 19.3919L239.999 19.3415L239.697 19.4712L239.598 19.512L229.679 23.7391L225.201 25.6605L223.271 9.67435L213.431 2.28408L210.414 0.00960706H208.47L197.771 8.05315V0.00960706H196.602V8.9298L181.607 20.2037L164.946 15.7364L158.493 1.88779C158.464 1.82054 158.433 1.7581 158.404 1.69325L158.38 1.64041C158.349 1.57556 158.32 1.51312 158.289 1.45067L157.622 0.00960706H156.333L160.118 8.13L163.478 15.3353L147.119 10.9593L142.704 16.2264L136.704 23.3692V7.16686L121.382 0.00960706H118.617L103.279 7.16686V23.3692L92.8797 10.9593L76.5237 15.3425L83.5677 0.225766L83.6687 0.00960706H82.3797L75.0527 15.7364L58.3918 20.2037L43.3967 8.9298V0.00960706H42.2399V8.05315L31.5287 0.00960706H29.5847L16.8959 9.54945L16.8311 9.59745L16.7999 9.6647C16.7837 9.6901 16.7693 9.7166 16.7567 9.744C16.7085 9.85575 16.6808 9.9754 16.6751 10.097L16.0655 15.1408L15.7031 18.119C15.3767 20.8234 15.0479 23.5254 14.8607 25.0841L14.7935 25.6485L2.15999 20.2637L0.12 19.3919L0 19.3415V20.6096L1.47359 21.2389L14.6399 26.8566L14.328 29.4241L12.888 41.3585L0 48.8064V50.1559L11.28 43.6402L12.72 42.8115L10.5 61.1369L22.4039 73.0523L5.54398 74.5268L0 89.7518V93.1693L3.45119 102.659L7.86957 114.814L2.54159 117.893L0 119.354V120.703L4.13519 118.314L8.27517 115.912L11.544 124.902L20.9543 126.561L17.6855 135.554L23.8295 142.879L15.5519 147.661V157.225L6.14158 155.565L0 162.891V164.709L15.5519 183.264V200.113L0 207.364V208.654L15.5519 215.912V232.76L0 251.309V253.127L6.14158 260.453L15.5519 258.793V268.357L23.8271 273.137L17.6831 280.462L20.9519 289.449L11.544 291.104L8.27517 300.092L0 295.315V296.664L7.86957 301.211L3.45119 313.359L0 322.848V326.266L5.53678 341.491L22.3967 342.965L10.4928 354.881L12.7128 373.206L0 365.862V367.211L12.888 374.657L13.5888 380.421L14.6399 389.161L6.80878 392.5L0 395.408V396.676L0.314399 396.544L0.400799 396.506L6.12718 394.063L14.7935 390.367L16.7135 406.197L16.7303 406.344L29.2607 415.756L29.5847 415.996H31.5287L42.2399 407.965V416.008H43.4086V407.088L58.3918 395.821L75.0527 400.289L79.4567 409.737L79.4852 409.804L79.5812 410.006L82.3797 416.011H83.6687L79.0222 406.038L76.5237 400.678L92.8797 405.061L103.286 392.649V408.851L118.625 416.008H121.389L136.728 408.851V392.649L147.119 405.061L163.468 400.675L156.414 415.806L156.323 416.001H157.612L164.939 400.274L181.607 395.821L196.602 407.095V416.015H197.771V407.972L208.47 416.015H210.414L214.494 412.951L223.276 406.351L225.213 390.376L227.822 391.489L239.776 396.587L239.884 396.633L240.002 396.684L240.316 396.551L240.402 396.513L245.822 394.203L254.795 390.376L256.715 406.204L256.732 406.351L260.896 409.473L269.589 416.008H271.533L276.261 412.454L282.232 407.965V416.008H283.401V407.088L298.391 395.821L315.052 400.289L321.647 414.442C321.983 415.163 322.242 415.718 322.367 416.015H323.656L321.34 411.046L316.511 400.683L320.766 401.823L332.86 405.068L339.013 397.728L343.266 392.656V408.858L358.604 416.015H361.369L376.708 408.858V392.656L387.114 405.068L403.463 400.683L396.86 414.853L396.448 415.737C396.435 415.758 396.425 415.781 396.416 415.804L396.318 416.015H397.607L404.934 400.289L421.595 395.821L436.589 407.095V416.015H437.758V407.972L448.457 416.015H450.401L455.331 412.31L463.251 406.351L465.188 390.376L469.52 392.223L479.751 396.587L479.859 396.633L479.977 396.684L480.289 396.551L480.377 396.513L485.365 394.387L494.77 390.376L496.676 406.103L496.688 406.204L496.705 406.351L509.563 416.015H511.503L522.203 407.972V416.015H523.373V407.095L524.093 406.548L538.388 395.821L555.053 400.289L562.378 416.015H563.668L563.498 415.648C563.498 415.629 563.478 415.61 563.468 415.586L556.523 400.695L572.873 405.08L583.278 392.668V408.87L598.618 416.027H601.378L616.718 408.87V392.668L617.553 393.662L627.123 405.08L643.473 400.695L642.808 402.136L636.458 415.758C636.448 415.78 636.438 415.803 636.428 415.826L636.328 416.037H637.618L644.943 400.31L661.608 395.843L676.603 407.117V416.037H677.768V407.994L688.468 416.037H690.413L694.298 413.117L703.268 406.372L705.208 390.398L709.048 392.034L719.773 396.609L719.883 396.655L719.998 396.705V395.437L709.393 390.912L705.353 389.19L707.113 374.688L719.998 367.243V365.893L707.278 373.24L709.468 355.195L709.498 354.912L697.598 342.999L714.458 341.522L719.998 326.266V322.848L717.048 314.732L712.128 301.211L719.998 296.664V295.315L711.723 300.097L708.453 291.104L702.753 290.1L699.043 289.445L702.313 280.46L696.173 273.134L704.448 268.352V258.788L713.858 260.45L719.998 253.125V251.307L704.448 232.758V215.912L719.998 208.654V207.364L704.448 200.106V183.264L719.998 164.716V162.898L713.858 155.572L704.448 157.232V147.663L697.373 143.58L696.173 142.886L702.313 135.561L699.048 126.573L708.453 124.902L711.723 115.914L715.138 117.889L719.998 120.703V119.354L716.058 117.079L712.128 114.814L716.878 101.746L719.998 93.1693V89.7518L714.463 74.5268L697.603 73.0523L709.503 61.1369L707.283 42.8115L720.003 50.1559V48.8064L707.118 41.3609L705.358 26.859L710.303 24.7478L719.998 20.612ZM15.5519 257.607L6.60238 259.185L0.763197 252.219L3.11999 249.405L15.5519 234.578V257.607ZM704.448 158.414L713.398 156.836L719.232 163.801L704.448 181.439V158.414ZM677.768 9.5134L689.443 0.73014L692.833 3.28322L702.173 10.3012L704.093 26.1168L690.663 31.8451L677.773 24.3996L677.768 9.5134ZM661.853 21.479L676.603 10.3924V25.0817L689.323 32.4287L672.353 39.6652L667.993 55.9349L658.283 42.0598L642.343 44.8747L649.138 36.7687L652.748 32.4623L645.598 17.1198L661.853 21.479ZM688.573 101.199L674.553 93.0973L660.688 102.805L660.908 100.3L662.163 85.9328L651.603 79.8348L648.133 77.8318L664.078 75.0243L668.458 58.6654L677.998 72.3028L678.028 72.3438L678.153 72.5238L678.563 72.5598H678.623L694.993 74.0008L683.038 85.9738L688.573 101.199ZM531.133 358.834L527.818 371.213L526.673 375.507L509.418 382.852L503.443 379.4L493.976 373.931L491.717 355.299L503.913 343.093L521.193 344.606L531.138 358.819L531.133 358.834ZM292.403 358.611L296.845 342.021L313.427 339.096L324.395 345.432L334.381 351.196L318.829 369.745L302.248 372.671L292.408 358.603L292.403 358.611ZM36.9599 330.044L31.4231 314.819L45.4438 322.92L59.3088 313.2L57.8398 330.077L71.8558 338.179L64.7208 339.44L55.9198 340.994L51.5398 357.354L41.9999 343.741C41.9866 343.719 41.9714 343.698 41.9543 343.679L41.8271 343.496L41.3615 343.455L24.9911 342.014L36.9599 330.044ZM22.5287 290.357L46.3558 286.154L60.9383 294.577L59.4428 311.687L45.3838 321.534L30.8039 313.109L22.5287 290.355V290.357ZM22.5287 125.661L30.8039 102.906L45.3838 94.4808L59.4428 104.328L60.9383 121.438L46.3558 129.861L22.5287 125.658V125.661ZM24.9935 73.9963L26.0711 73.9023L41.5607 72.5428H41.5991L41.8391 72.5213L50.7383 59.7919L51.5348 58.6534L53.4548 65.8589L55.9198 75.0243L63.9598 76.4433L71.8653 77.8388L57.8398 85.9403L59.3088 102.805L45.4462 93.0903L31.4255 101.191L35.6711 89.5163L36.9599 85.9738L24.9935 73.9963ZM187.595 57.4239L183.153 74.0128L166.571 76.9383L154.305 69.8508L145.617 64.8309L161.169 46.2821L177.75 43.3567L187.59 57.4239H187.595ZM292.403 57.4239L302.243 43.3567L318.824 46.2821L334.376 64.8309L321.359 72.3483L313.439 76.9288L296.857 74.0033L292.403 57.4119V57.4239ZM651.133 150.841L646.673 167.512L629.418 174.858L613.978 165.936L611.718 147.303L623.913 135.097L641.193 136.61L651.138 150.824L651.133 150.841ZM671.853 285.849L657.838 293.938L657.948 295.197L659.313 310.808L645.448 301.093L631.428 309.194L636.963 293.97L624.998 281.994L641.558 280.553H641.613L641.853 280.534L642.093 280.183L642.118 280.147L651.543 266.676L655.923 283.037L671.853 285.849ZM622.528 333.671L630.803 310.919L645.383 302.494L659.443 312.341L660.938 329.448L646.353 337.874L622.528 333.668V333.671ZM641.188 279.417L623.908 280.93L611.713 268.725L613.973 250.092L626.073 243.098L629.413 241.176L646.668 248.535L651.128 265.208L641.188 279.417ZM479.377 324.57L473.617 340.403L468.353 340.864L456.521 341.899L450.711 336.087L444.387 329.756L450.147 313.924L471.101 301.816L475.661 314.373L479.369 324.57H479.377ZM382.528 333.671L390.803 310.919L405.383 302.494L419.442 312.341L419.598 314.123L420.937 329.448L406.355 337.874L382.528 333.668V333.671ZM142.529 333.671L150.803 310.919L165.383 302.494L179.442 312.341L180.938 329.448L166.355 337.874L142.529 333.668V333.671ZM74.5557 301.096L60.6908 310.811L61.9678 296.191L62.1648 293.938L48.1462 285.837L64.0798 283.025L68.4598 266.664L77.9997 280.296L78.0287 280.337L78.1557 280.52L92.2007 281.749L94.9967 281.99L83.0397 293.972L87.0332 304.951L88.5787 309.197L74.5557 301.096ZM89.1957 310.907L97.4732 333.659L73.6437 337.864L59.0613 329.439L60.5568 312.331L74.6157 302.484L89.1957 310.907ZM45.5998 225.118L61.8598 229.477L76.6077 218.388V233.08L89.3277 240.424L79.1372 244.772L72.3598 247.654L68.0013 263.928L58.2933 250.055L42.3503 252.868L51.4438 242.022L52.7568 240.458L45.5998 225.118ZM77.7787 203.021V199.966L88.4707 208.003L77.7717 216.044V203.029L77.7787 203.021ZM60.6908 105.207L74.5557 114.922L88.5767 106.821L83.0397 122.046L95.0062 134.028L80.7667 135.275L78.4507 135.479H78.4007L78.1607 135.498L72.3692 143.78L68.4693 149.354L64.0798 132.993L48.1438 130.186L62.1598 122.08L60.6908 105.207ZM60.5568 103.687L59.0613 86.5788L73.6437 78.1538L81.8302 79.5948L97.4732 82.3543L89.1957 105.109L74.6157 113.537L60.5568 103.689V103.687ZM75.5782 141.234L78.8087 136.615L80.5942 136.459L96.0837 135.102L108.281 147.308L106.022 165.941L97.3197 170.967L90.5807 174.858L73.3267 167.497L68.8628 150.824L75.5782 141.234ZM150.803 105.113L142.529 82.3593L166.355 78.1538L180.938 86.5788L179.442 103.687L165.383 113.534L150.803 105.111V105.113ZM396.959 122.046L391.422 106.821L405.443 114.922L419.308 105.207L417.839 122.08L431.854 130.186L415.919 132.993L414.93 136.69L411.539 149.354L401.999 135.71L401.97 135.669L401.843 135.486L387.349 134.218L385.002 134.012L390.719 128.291L396.959 122.046ZM547.593 265.405L543.153 281.994L526.568 284.92L505.618 272.812L509.298 268.422L521.168 254.263L537.748 251.338L547.588 265.405H547.593ZM584.073 181.881C583.783 184.283 582.393 195.859 582.153 197.699L574.693 203.307L569.413 207.268L562.138 201.801L557.743 198.494V183.603L569.938 176.556L570.628 176.155L584.073 181.881ZM571.918 175.432L585.838 167.389L584.223 180.683L572.768 175.797L571.918 175.432ZM568.468 208.003L557.768 216.046V199.954L567.278 207.102L568.478 207.998L568.468 208.003ZM556.603 182.928V197.627L541.853 186.538L525.598 190.9L532.748 175.55L522.343 163.138L538.288 165.951L544.193 157.511L547.993 152.078L552.353 168.352L569.323 175.591L556.603 182.928ZM519.118 253.449L496.719 257.4V233.188L507.538 220.278L524.118 224.724L531.368 240.287L529.818 242.139L520.548 253.187L519.118 253.449ZM519.378 254.588L507.978 268.184L504.588 272.229L496.719 267.682V258.587L519.378 254.588ZM479.998 251.309L464.446 232.76V215.912L479.998 208.654L495.55 215.912V232.76L479.998 251.309ZM495.55 257.607L486.603 259.187L480.761 252.222L495.55 234.581V257.609V257.607ZM439.63 253.226L439.455 253.197L428.632 240.287L435.884 224.724L452.461 220.278L463.282 233.188V257.4L439.63 253.226ZM463.282 258.587V267.682L455.413 272.229L450.435 266.294L440.617 254.597L463.282 258.587ZM463.282 158.618V182.832L452.461 195.739L435.884 191.294L428.639 175.73L439.198 163.133L439.46 162.823L439.635 162.792L463.282 158.618ZM440.621 161.43L455.413 143.789L458.492 145.569L463.292 148.336V157.431L440.621 161.43ZM435.056 192.281L439.426 201.662C440.782 204.571 442.011 207.21 442.383 208.01L439.743 213.69L435.063 223.737L418.403 228.204L403.408 216.93V199.087L406.585 196.686L418.403 187.799L435.063 192.266L435.056 192.281ZM452.878 218.957L436.529 223.341L442.981 209.499L443.545 208.298C443.556 208.276 443.567 208.254 443.576 208.231L443.674 208.02L439.493 199.047L436.529 192.687L452.878 197.06L463.285 184.648V200.85L478.616 208.003L463.277 215.16V231.362L452.878 218.957ZM479.998 164.709L495.55 183.264V200.113L479.998 207.364L464.446 200.106V183.264L479.998 164.709ZM464.446 181.439V158.411L473.396 156.833L479.237 163.799L464.446 181.439ZM480.766 163.799L486.608 156.833L495.555 158.411V181.439L480.766 163.799ZM464.446 234.578L479.235 252.219L473.396 259.185L464.446 257.604V234.578ZM481.381 208.003L496.719 200.843V184.648L507.118 197.06L523.468 192.677L517.048 206.451L516.328 208.01L517.433 210.385L523.473 223.341L507.118 218.957L496.712 231.37V215.167L481.381 208.003ZM496.719 168.172V158.618L519.118 162.571L520.558 162.811L521.548 163.993L531.388 175.718L524.138 191.282L507.558 195.727L496.738 182.82L496.719 168.172ZM496.719 148.329L504.588 143.782L519.378 161.423L496.719 157.424V148.329ZM524.943 223.73L517.638 208.048L517.618 208.003L524.943 192.274L541.608 187.806L556.603 199.08V216.923L541.608 228.197L524.943 223.73ZM545.358 153.788L537.748 164.663L521.168 161.738L505.618 143.189L517.593 136.267L526.568 131.082L543.153 134.028L547.593 150.601L545.358 153.788ZM516.263 135.71L504.853 142.3L499.013 135.335L502.123 126.79L523.288 130.524L524.783 130.788L516.263 135.71ZM501.358 125.454L492.409 123.874L489.289 115.328L509.208 103.814L501.358 125.454ZM491.542 124.902L500.953 126.561L497.684 135.549L501.748 140.393L503.828 142.874L495.55 147.656V157.218L486.14 155.558L479.998 162.891L473.857 155.565L464.446 157.225V147.663L458.029 143.955L456.169 142.881L462.313 135.556L459.044 126.569L468.454 124.902L471.723 115.914L475.918 118.342L479.998 120.703L483.745 118.542L488.273 115.924L491.542 124.902ZM467.588 123.867L458.638 125.454L450.769 103.814L470.689 115.328L467.588 123.867ZM460.985 135.313L455.144 142.279L443.737 135.71L435.214 130.786L457.875 126.787L460.985 135.313ZM442.402 136.274L454.381 143.196L438.829 161.745L422.248 164.67L412.408 150.603L415.787 137.989L416.85 134.016L433.439 131.089L442.402 136.274ZM421.717 165.951L437.66 163.138L427.254 175.55L434.406 190.9L418.144 186.538L403.396 197.627V182.935L390.676 175.591L407.644 168.352L412.002 152.078L421.717 165.951ZM402.239 183.61V198.501L390.556 207.282L377.836 197.714L375.916 181.895L378.908 180.62L389.344 176.167L402.239 183.61ZM402.239 216.051L391.528 208.003L402.239 199.966V216.051ZM389.584 208.003L376.926 217.516L376.895 217.543L376.864 217.571C376.847 217.588 376.832 217.605 376.818 217.624C376.72 217.765 376.669 217.933 376.674 218.105L375.995 223.725L375.702 226.127C375.383 228.769 375.061 231.41 374.872 232.991L374.792 233.647L364.355 229.196L360.227 227.436L360.119 227.388L359.999 227.337L359.699 227.464L359.598 227.508L350.699 231.3L345.208 233.642L343.271 217.668L332.771 209.773L330.414 208.003L334.924 204.611L343.271 198.336L345.208 182.361L347.912 183.514L359.771 188.572L359.879 188.62L359.996 188.671L360.308 188.536L360.397 188.5L366.157 186.046L374.797 182.361L376.703 198.088L376.72 198.228V198.336L377.317 198.785L377.49 198.914L389.584 208.003ZM375.764 180.675L374.159 167.389L388.079 175.432L375.764 180.675ZM374.646 181.156L366.632 184.573L359.999 187.408L348.277 182.409L345.352 181.16L345.616 178.999L347.111 166.659L359.999 159.214L372.887 166.659L374.646 181.156ZM344.25 180.548L344.233 180.678L331.919 175.432L345.839 167.389L344.25 180.548ZM344.087 181.886C343.796 184.288 342.407 195.864 342.167 197.704L335.351 202.827L329.442 207.282L317.771 198.509V183.617L322.033 181.156L330.659 176.17L330.688 176.182L344.087 181.886ZM328.47 208.003L317.771 216.044V199.952L328.47 208.003ZM316.602 182.928V197.627L301.854 186.538L285.599 190.9L292.751 175.55L282.345 163.138L298.288 165.951L307.996 152.078L312.354 168.352L329.324 175.591L316.602 182.928ZM239.999 251.309L224.447 232.76V215.912L239.999 208.654L255.551 215.912V232.76L239.999 251.309ZM255.551 234.578V257.607L246.602 259.187L240.762 252.222L255.551 234.578ZM199.451 253.197L188.639 240.287L195.892 224.724L212.469 220.278L223.29 233.185V257.4L199.451 253.197ZM223.278 258.587V267.682L215.409 272.229L213.05 269.414L200.618 254.597L223.278 258.587ZM223.278 158.618V182.832L218.114 188.99L212.457 195.739L195.88 191.294L188.639 175.73L199.463 162.823L223.278 158.618ZM200.618 161.43L211.278 148.715L215.409 143.789L220.209 146.559L223.286 148.336V157.431L200.618 161.43ZM195.052 192.281L200.942 204.921L202.382 208.01L195.054 223.737L178.394 228.204L163.398 216.93V199.087L178.394 187.813L195.054 192.281H195.052ZM219.026 226.297L212.879 218.957L196.53 223.341L203.56 208.255L203.584 208.205L203.675 208.01L200.075 200.293L196.526 192.677L212.879 197.06L223.286 184.648V200.85L238.617 208.003L223.278 215.16V231.362L219.026 226.297ZM239.999 164.709L248.207 174.496L255.551 183.264V200.113L241.391 206.718L239.99 207.371L238.588 206.718L224.428 200.113V183.264L239.999 164.709ZM224.447 181.439V158.411L233.397 156.845L239.238 163.811L224.447 181.439ZM240.767 163.799L246.609 156.833L255.556 158.411V181.439L240.767 163.799ZM224.447 234.578L239.236 252.219L233.975 258.495L233.397 259.187L224.447 257.607V234.578ZM241.382 208.003L256.72 200.843V184.648L265.338 194.927L267.126 197.06L283.326 192.715L283.475 192.677L276.446 207.763L276.422 207.813L276.33 208.01L276.525 208.428L283.47 223.331L276.719 221.53L267.119 218.957L262.751 224.167L256.713 231.372V215.167L241.382 208.003ZM280.559 162.823L291.38 175.73L285.066 189.269L284.106 191.303L267.53 195.749L258.266 184.701L256.708 182.844V158.618L280.559 162.823ZM256.73 157.431V148.336L264.599 143.789L279.033 161.005L279.39 161.43L256.73 157.431ZM256.73 258.587L279.39 254.588L266.958 269.414L264.599 272.229L256.73 267.682V258.587ZM256.73 257.4V233.185L267.551 220.278L284.128 224.724L291.38 240.287L280.559 253.197L256.73 257.4ZM277.653 208.063C277.653 208.044 277.636 208.027 277.629 208.01L284.956 192.281L301.616 187.813L316.612 199.087V216.93L301.616 228.204L284.956 223.737L277.653 208.063ZM297.76 164.67L281.178 161.745L280.778 161.265L265.626 143.196L279.378 135.251L286.578 131.089L303.16 134.014L307.595 150.601L297.76 164.67ZM264.863 142.288L259.024 135.323L262.144 126.778L280.864 130.082L284.8 130.776L264.863 142.288ZM261.359 125.454L252.41 123.874L249.424 115.665L249.302 115.328L249.738 115.076L269.229 103.814L261.359 125.454ZM251.543 124.902L260.954 126.561L257.685 135.549L263.829 142.874L255.551 147.654V157.218L246.141 155.558L239.999 162.891L233.858 155.565L224.447 157.225V147.661L219.09 144.567L216.172 142.886L222.314 135.561L219.045 126.573L228.455 124.902L231.724 115.914L235.617 118.177L239.999 120.703L243.894 118.453L248.274 115.921L251.543 124.902ZM227.589 123.867L218.639 125.454L210.77 103.814L230.26 115.076L230.697 115.328L227.589 123.867ZM220.986 135.313L215.145 142.279L205.602 136.767L195.215 130.762L199.151 130.068L217.871 126.763L220.986 135.313ZM214.382 143.189L211.965 146.071L198.83 161.745L196.01 162.242L182.248 164.67L172.408 150.603L173.519 146.417L176.838 134.014L177.597 133.882L193.439 131.089L214.382 143.189ZM181.718 165.943L195.801 163.46L197.661 163.131L190.038 172.221L187.254 175.543L194.399 190.9L178.137 186.538L163.396 197.627V182.935L150.676 175.591L167.644 168.352L172.002 152.078L181.718 165.943ZM162.239 183.61V198.501L150.556 207.282L137.837 197.714L135.917 181.895L135.974 181.871L149.344 176.167L162.239 183.61ZM162.239 211.711V216.034L151.528 208.003L162.239 199.966V211.716V211.711ZM135.765 180.683L134.805 172.694L134.16 167.389L148.079 175.432L135.765 180.683ZM134.647 181.163L126.194 184.766L120 187.408L108.309 182.421L105.36 181.16L105.686 178.478L107.126 166.659L120.014 159.214L132.902 166.659L134.647 181.163ZM104.241 180.622V180.68L91.9197 175.432L105.84 167.389L104.241 180.622ZM105.201 182.366L107.789 183.471L119.765 188.577L119.873 188.625L119.99 188.676L120.305 188.541L120.391 188.505L126.173 186.038L134.784 182.366L136.704 198.194L136.721 198.34L146.32 205.546L149.584 208.003L136.927 217.516L136.896 217.543L136.865 217.567L136.829 217.612C136.798 217.648 136.772 217.688 136.752 217.73C136.708 217.849 136.683 217.973 136.677 218.1L136.104 222.851L135.705 226.122C135.345 229.1 134.985 232.073 134.81 233.514L134.796 233.642L122.568 228.435L120.24 227.438L120.132 227.39L120.012 227.339L119.707 227.472L119.611 227.51L111.672 230.897L105.221 233.649L103.284 217.675L92.8797 209.852L90.4147 208.003L95.1527 204.441L103.272 198.336L105.201 182.366ZM93.8397 212.04L102.18 218.309L104.1 234.127L103.989 234.175L90.6717 239.855L86.3062 237.331L77.7837 232.407V217.516L89.4547 208.742L93.8397 212.04ZM104.241 235.337L105.17 242.982L105.854 248.631L91.9342 240.588L104.241 235.337ZM105.36 234.857L111.285 232.33L120 228.61L121.178 229.112L134.64 234.857L134.565 235.467L132.885 249.359L125.205 253.795L120 256.807L107.112 249.361L106.337 242.975L105.36 234.857ZM135.773 235.337L148.079 240.585L134.16 248.629L135.773 235.337ZM135.919 234.136C135.936 233.997 135.955 233.824 135.979 233.625C136.31 230.909 137.261 223.057 137.671 219.666C137.745 219.053 137.803 218.585 137.834 218.318L150.554 208.75L162.239 217.514V232.405L149.409 239.819L149.351 239.853L135.919 234.136ZM163.403 233.092V218.39L178.151 229.479L194.399 225.118L187.247 240.47L197.654 252.88L181.71 250.068L172.002 263.94L167.644 247.666L150.683 240.427L163.403 233.092ZM182.255 251.357L198.837 254.283L214.389 272.832L204.402 278.596L193.439 284.929L176.858 282.004L176.399 280.344L172.403 265.405L182.255 251.357ZM205.61 279.252L215.152 273.739L220.994 280.705L217.874 289.25L196.406 285.463L195.206 285.251L205.61 279.252ZM218.639 290.564L220.206 290.84L227.589 292.144L230.709 300.69L210.789 312.204L218.639 290.564ZM228.455 291.109L222.594 290.076L219.045 289.449L222.314 280.462L216.172 273.139L224.26 268.465L224.447 268.357V258.793L233.858 260.453L239.999 253.127L246.141 260.453L255.551 258.793V268.357L263.826 273.137L260.21 277.46L257.682 280.472L260.951 289.459L251.543 291.104L248.274 300.092L239.999 295.315L231.724 300.097L228.455 291.109ZM252.41 292.144L261.359 290.564L269.229 312.204L249.309 300.69L252.41 292.144ZM259.014 280.697L264.854 273.732L274.396 279.244L284.783 285.249L283.583 285.46L262.115 289.248L259.014 280.697ZM275.603 278.591L265.617 272.827L281.169 254.278L297.75 251.352L307.59 265.42L303.148 282.009L286.566 284.934L275.603 278.591ZM298.28 250.068L282.338 252.88L292.744 240.47L285.599 225.118L301.861 229.479L316.609 218.39V233.082L329.329 240.427L323.689 242.829L312.361 247.661L308.003 263.935L298.28 250.068ZM326.293 237.338L317.771 232.414V217.523L329.442 208.75L333.642 211.906L342.172 218.318L344.092 234.136L330.652 239.865L326.293 237.338ZM344.233 235.342L345.395 244.925L345.846 248.636L331.926 240.592L344.233 235.342ZM345.352 234.862L350.233 232.779L359.999 228.61L362.994 229.888L374.639 234.857L372.88 249.359L370.78 250.56L359.98 256.804L347.092 249.359L346.458 244.13L345.352 234.862ZM375.757 235.383V235.325L388.067 240.576L374.147 248.619L375.757 235.383ZM375.911 234.117C375.925 233.99 375.944 233.836 375.966 233.661L377.452 221.412C377.629 219.937 377.768 218.792 377.826 218.311L390.546 208.742L393.764 211.161L402.239 217.514V232.405L389.644 239.682L389.351 239.853L375.911 234.117ZM403.396 233.073V218.39L418.144 229.479L434.398 225.118L427.247 240.47L437.653 252.88L433.553 252.159L421.71 250.07L412.002 263.943L407.644 247.668L390.676 240.429L403.396 233.073ZM422.248 251.338L435.773 253.725L438.829 254.263L450.699 268.422L454.381 272.812L433.439 284.929L416.857 282.004L412.403 265.405L422.248 251.338ZM454.505 274.09L455.144 273.72L460.983 280.685L457.863 289.231L439.323 285.96L435.203 285.239L454.505 274.09ZM458.638 290.554L461.017 290.975L467.588 292.135L470.708 300.68L450.788 312.194L458.638 290.554ZM468.454 291.099L462.886 290.117L459.046 289.44L462.315 280.452L456.173 273.129L464.449 268.347V258.784L473.859 260.446L480.001 253.12L486.142 260.448L495.553 258.786V268.35L503.828 273.129L497.684 280.455L500.953 289.442L491.542 291.104L488.273 300.092L479.998 295.315L471.723 300.097L468.454 291.099ZM492.409 292.135L501.358 290.554L509.228 312.194L489.308 300.68L492.409 292.135ZM499.013 280.688L504.853 273.723L505.493 274.093L524.783 285.237L520.663 285.957L502.123 289.228L499.013 280.688ZM538.278 250.058L522.338 252.87L532.743 240.46L525.598 225.118L541.858 229.479L556.608 218.39V233.082L569.328 240.427L552.358 247.666L547.998 263.94L538.278 250.058ZM557.768 232.398V217.507L569.443 208.733L573.708 211.939L582.173 218.302L584.093 234.12L570.663 239.848L557.768 232.398ZM584.233 235.325L585.843 248.619L571.923 240.576L584.233 235.325ZM585.353 234.845L590.723 232.554L599.998 228.61L601.583 229.287L614.638 234.857L612.878 249.359L599.993 256.804L587.103 249.359L586.878 247.517L585.353 234.845ZM615.763 235.325L627.923 240.513L628.073 240.576L614.153 248.619L615.763 235.325ZM615.703 226.119C615.383 228.761 615.058 231.403 614.873 232.984L614.793 233.639L602.498 228.418L600.228 227.457L600.118 227.409L599.998 227.359L599.693 227.491L599.598 227.529L590.978 231.206L585.953 233.351L586.023 233.205L585.198 233.618L583.278 217.694L574.023 210.729L570.423 208.022L574.308 205.101L583.283 198.355L585.218 182.381L589.058 184.016L599.788 188.58L599.893 188.628L600.013 188.678L600.323 188.544L600.413 188.508L605.438 186.365L614.058 182.688L613.983 182.832L614.813 182.419L616.733 198.297V198.343L624.358 204.076L629.588 208.01L616.928 217.526L616.888 217.557L616.853 217.586L616.813 217.644C616.788 217.675 616.768 217.71 616.748 217.747C616.708 217.862 616.683 217.984 616.678 218.107L616.008 223.655L615.703 226.119ZM614.158 167.389L628.078 175.432L615.768 180.683L614.158 167.389ZM614.653 181.16L605.778 184.946L599.998 187.408L589.393 182.885L585.358 181.16L587.118 166.659L600.003 159.214L612.893 166.659L613.658 172.946L614.653 181.16ZM600.013 157.864L587.293 165.208L589.478 147.164L589.513 146.883L577.608 134.968L594.468 133.49L599.373 120.009L600.003 118.266L601.043 121.114L605.543 133.49L622.403 134.968L621.488 135.88L610.498 146.883L611.913 158.553L612.718 165.208L600.013 157.864ZM588.293 147.296L586.033 165.929L573.918 172.937L570.578 174.858L553.323 167.497L548.863 150.824C550.063 149.126 557.623 138.304 558.808 136.61L576.088 135.097L588.293 147.296ZM558.338 135.472L558.178 135.486L555.153 139.793L548.468 149.349L544.078 132.993L528.143 130.186L542.158 122.08L541.783 117.792L540.683 105.207L554.548 114.922L568.568 106.821L563.038 122.046L575.003 134.028L558.338 135.472ZM554.628 113.527L540.568 103.68L539.073 86.5718L553.658 78.1463L577.488 82.3518L569.208 105.106L554.628 113.527ZM539.623 106.257L540.953 121.431L526.368 129.854L502.543 125.651L510.818 102.897L525.398 94.4713L533.103 99.8727L539.458 104.323L539.623 106.257ZM509.863 102.097L488.909 114.204L487.258 109.665L480.634 91.4498L486.394 75.6173L503.488 74.1208L515.623 86.2643L509.863 102.097ZM487.868 114.814L481.486 118.501L479.998 119.361L477.164 117.725L472.124 114.814L476.542 102.666L479.998 93.1693L487.868 114.814ZM479.377 91.4668L475.587 101.888L471.101 114.221L450.147 102.114L444.387 86.2813L456.521 74.1378L473.617 75.6343L479.377 91.4668ZM457.472 125.668L451.215 126.77L433.643 129.871L419.06 121.448L420.556 104.338L429.217 98.2707L434.614 94.4883L449.194 102.913L457.472 125.668ZM419.68 100.961L419.44 103.687L405.38 113.534L390.8 105.111L385.316 90.0328L382.525 82.3473L406.352 78.1418L408.848 79.5828L420.935 86.5648L419.68 100.961ZM401.2 136.613L411.145 150.827L409.945 155.349L406.693 167.499L389.418 174.858L387.16 173.554L373.976 165.936L371.718 147.303L383.915 135.097L401.2 136.613ZM370.501 146.883L371.98 159.096L372.721 165.208L360.001 157.864L347.281 165.208L349.501 146.883L337.597 134.968L354.457 133.49L359.999 118.266L365.536 133.49L382.396 134.968L370.501 146.883ZM348.289 147.306L346.031 165.939L337.319 170.967L330.58 174.858L313.326 167.497L308.862 150.824L315.582 141.217L318.812 136.598L320.687 136.435L336.088 135.085L348.289 147.306ZM320.689 135.277L318.464 135.472H318.414L318.174 135.491L312.378 143.775L308.478 149.349L304.079 132.993L288.143 130.186L302.159 122.08L300.69 105.207L314.555 114.922L328.576 106.821L323.039 122.046L335.005 134.028L320.689 135.277ZM314.629 113.537L300.57 103.689L299.075 86.5813L313.657 78.1558L337.487 82.3613L334.552 90.4243L329.209 105.116L314.629 113.537ZM299.456 104.331L299.696 107.042L300.956 121.441L286.374 129.864L262.547 125.661L270.822 102.906L285.402 94.4808L299.461 104.328L299.456 104.331ZM269.865 102.106L249.352 113.959L248.91 114.214L244.173 101.189L240.635 91.4593L246.395 75.6268L263.49 74.1308L275.627 86.2738L272.399 95.1198L269.865 102.106ZM243.465 102.659L247.869 114.814L241.502 118.494L239.999 119.354L236.745 117.473L232.13 114.814L236.548 102.666L239.999 93.1693L243.465 102.659ZM235.854 101.189L231.102 114.214L230.661 113.959L210.148 102.106L204.388 86.2738L216.522 74.1308L233.618 75.6268L239.378 91.4593L235.854 101.189ZM217.473 125.661L193.643 129.864L179.061 121.441L180.556 104.331L187.631 99.3757L194.615 94.4808L209.195 102.906L217.473 125.661ZM165.446 114.922L179.308 105.207L177.839 122.08L191.855 130.186L176.601 132.878L175.91 132.998L171.53 149.359L165.808 141.193L161.999 135.741C161.985 135.719 161.97 135.698 161.954 135.679L161.826 135.496L147.839 134.269L144.983 134.028L156.959 122.046L154.007 113.923L151.425 106.821L165.446 114.922ZM161.19 136.613L167.399 145.499L171.136 150.839L166.672 167.512L149.418 174.858L133.977 165.936L131.719 147.303L143.916 135.097L161.19 136.613ZM130.493 146.883L132.713 165.208L119.993 157.864L107.273 165.208L109.493 146.883L97.5887 134.968L114.449 133.49L120 118.266L125.537 133.49L142.397 134.968L130.493 146.883ZM90.6527 176.162L92.0927 176.782L104.071 181.891C103.781 184.292 102.379 195.869 102.151 197.709L95.1047 203.005L89.4427 207.282L86.2247 204.864L77.7717 198.509V183.617L87.0837 178.238L90.6527 176.162ZM78.8012 279.405L68.8558 265.191L73.3197 248.518L81.2397 245.141L90.5757 241.157L95.8942 244.231L106.017 250.08L108.276 268.713L96.0787 280.918L78.8012 279.405ZM109.5 269.135L107.28 250.81L120 258.154L132.72 250.81L130.5 269.135L142.404 281.05L125.544 282.528L120 297.752L114.463 282.528L97.6027 281.05L109.5 269.135ZM131.712 268.713L133.97 250.08L142.673 245.05L149.418 241.147L166.672 248.509L171.136 265.182L165.326 273.482L161.19 279.396L158.903 279.595L143.916 280.909L131.712 268.713ZM159.232 280.748L161.541 280.546H161.591L161.831 280.527L168.146 271.503L171.527 266.669L175.679 282.136L175.919 283.025L191.865 285.837L177.839 293.938L179.313 310.811L165.45 301.096L151.43 309.197L156.959 293.972L144.99 281.997L159.232 280.748ZM179.054 294.577L193.636 286.154L217.466 290.357L209.188 313.111L194.608 321.537L192.314 319.93L180.554 311.687L179.054 294.577ZM210.148 313.921L231.102 301.814L235.84 314.838L239.378 324.568L233.618 340.4L216.522 341.897L204.388 329.753L210.148 313.921ZM236.548 313.368L232.13 301.221L239.999 296.674L247.869 301.221L243.45 313.368L239.999 322.851L236.548 313.368ZM244.158 314.838L248.896 301.814L269.85 313.921L275.61 329.753L263.476 341.897L246.378 340.4L240.618 324.568L244.158 314.838ZM262.528 290.367L286.355 286.164L300.937 294.587L299.442 311.697L299.334 311.772L285.383 321.546L270.803 313.121L262.528 290.367ZM300.556 312.341L314.615 302.494L329.195 310.919L337.472 333.671L313.643 337.876L299.06 329.451L300.556 312.341ZM325.276 307.297L314.557 301.103L308.706 305.203L300.692 310.818L301.369 303.075L302.166 293.948L288.146 285.847L304.091 283.034L308.471 266.673L313.415 273.742L317.994 280.287C318.008 280.308 318.023 280.329 318.04 280.349L318.167 280.532L332.212 281.761L335.008 282.002L323.039 293.972L328.578 309.197L325.276 307.297ZM318.81 279.412L310.213 267.125L308.864 265.204L313.328 248.53L323.24 244.303L330.582 241.169L339.268 246.186L346.024 250.092L348.282 268.725L336.085 280.93L318.81 279.412ZM349.508 269.142L347.288 250.817L360.008 258.161L372.472 250.956L372.712 250.812L370.525 268.857L370.492 269.138L382.396 281.053L365.536 282.53L360.692 295.85L359.999 297.755L354.462 282.53L337.602 281.053L349.508 269.142ZM371.72 268.72L373.979 250.087L389.42 241.167L406.674 248.526L411.138 265.199C409.938 266.897 402.376 277.719 401.192 279.412L400.336 279.487L383.917 280.928L371.72 268.72ZM401.075 280.597L401.555 280.553H401.608L401.848 280.532L404.195 277.169L411.544 266.666L415.924 283.027L431.869 285.84L417.839 293.938L419.312 310.811L405.45 301.096L391.429 309.197L396.966 293.972L384.997 281.997L401.075 280.597ZM419.063 294.584L425.807 290.689L433.645 286.161L457.474 290.365L449.197 313.119L434.617 321.544L420.558 311.697L419.063 294.584ZM476.662 313.652L472.141 301.218L480.01 296.672L487.88 301.218L480.01 322.858L476.662 313.652ZM487.299 306.233L488.907 301.811L509.863 313.919L515.623 329.751L503.488 341.894L486.389 340.398L480.629 324.565L487.299 306.233ZM502.538 290.365L526.368 286.161L540.948 294.584L539.453 311.695L525.393 321.542L510.813 313.117L502.538 290.365ZM540.568 312.338L554.628 302.491L569.208 310.916L577.483 333.668L553.653 337.874L539.073 329.448L540.568 312.338ZM554.568 301.103L540.703 310.818L542.173 293.946L528.153 285.844L544.098 283.032L548.478 266.671L557.998 280.296L558.028 280.337L558.153 280.517L558.603 280.556H558.623L574.993 281.997L563.038 293.972L568.573 309.197L554.568 301.103ZM558.818 279.412L548.873 265.199L553.338 248.526L570.593 241.167L586.033 250.087L588.293 268.72L576.093 280.926L558.818 279.412ZM589.518 269.142L587.298 250.817L600.018 258.161L612.738 250.817L610.553 268.861L610.518 269.142L622.423 281.058L605.563 282.535L599.998 297.752L594.463 282.528L586.063 281.793L577.593 281.05L589.518 269.142ZM629.358 239.862L619.998 235.868L615.933 234.134C615.968 233.839 616.023 233.414 616.088 232.861C616.413 230.169 617.048 224.887 617.473 221.419C617.653 219.944 617.793 218.796 617.848 218.316L630.568 208.747L635.278 212.288L642.238 217.514V232.405L630.893 238.962L629.358 239.862ZM631.528 208.003L642.238 199.966V216.058L631.528 208.003ZM630.568 207.282L617.848 197.714L615.928 181.895L629.353 176.167L642.243 183.613V198.504L630.568 207.282ZM649.063 145.819L641.843 135.491L624.993 134.028L636.958 122.046L631.423 106.821L645.443 114.922L659.308 105.207L657.838 122.08L671.853 130.186L655.918 132.993L651.538 149.354L649.063 145.819ZM645.383 113.537L630.803 105.113L625.283 89.9273L622.528 82.3593L646.358 78.1538L660.938 86.5788L659.443 103.687L645.383 113.537ZM627.068 65.6619L625.618 64.8214L641.168 46.2725L657.748 43.3471L667.588 57.4144L663.148 74.0033L646.563 76.9288L627.068 65.6619ZM639.378 46.5895L624.588 64.2284L616.718 59.6814V50.5884L639.378 46.5895ZM624.853 65.7319L626.293 66.5604L644.788 77.2458L643.598 77.4548L622.128 81.2448L619.018 72.6968L624.853 65.7319ZM622.268 85.0753L629.228 104.203L609.308 92.6893L612.418 84.1438L621.368 82.5658L622.268 85.0753ZM629.848 105.911L635.608 121.746L623.473 133.889L611.778 132.866L606.378 132.386L600.618 116.551L604.318 106.36L608.878 93.8038L629.848 105.911ZM603.358 105.647L599.998 114.85L597.048 106.732L592.128 93.2103L599.998 88.6638L607.868 93.2128L603.358 105.647ZM595.968 107.157L599.388 116.558L593.628 132.393L576.533 133.889L564.398 121.746L570.158 105.911L574.743 103.269L591.113 93.8083L595.968 107.157ZM570.778 104.203L575.758 90.4603L578.638 82.5658L587.588 84.1438L590.698 92.6893L570.778 104.203ZM577.888 81.2448L555.228 77.2458L575.148 65.7319L580.988 72.6968L577.888 81.2448ZM560.628 46.5895L577.113 49.4981L583.288 50.5884V59.6814L581.918 60.4744L575.418 64.2284L560.628 46.5895ZM574.393 64.8214L553.438 76.9288L536.858 74.0033L536.258 71.7698L532.418 57.4144L538.458 48.7848L542.263 43.3471L558.843 46.2725L574.393 64.8214ZM535.918 75.0243L551.863 77.8388L537.838 85.9403L539.313 102.813L532.148 97.7952L525.448 93.0973L511.428 101.199L516.958 85.9738L504.988 73.9963L513.813 73.2253L521.828 72.5213L530.013 60.8294L531.528 58.6679L535.918 75.0243ZM521.198 71.4068L513.388 72.0893L503.923 72.9178L491.727 60.7119L493.985 42.079L509.418 33.154L526.673 40.513L531.133 57.1864C529.948 58.8914 522.373 69.7113 521.188 71.4068H521.198ZM490.534 60.8539L490.501 61.1369L502.403 73.0523L485.545 74.5268L479.998 89.7518L478.961 86.9033L474.461 74.5268L469.796 74.1188L457.601 73.0523L469.505 61.1369L467.285 42.8115L480.005 50.1559L485.66 46.8898L492.718 42.8067L490.534 60.8539ZM468.289 60.7119L456.092 72.9178L438.812 71.4068L428.867 57.1909L433.331 40.5178L436.049 39.3578L450.579 33.154L466.021 42.0742L468.289 60.7119ZM437.998 72.3028L438.027 72.3463L438.154 72.5263L441.994 72.8648L454.985 74.0008L443.038 85.9738L448.577 101.199L434.557 93.0973L421.201 102.464L420.692 102.822L422.166 85.9498L408.145 77.8483L424.079 75.0243L428.459 58.6654L437.998 72.3028ZM423.143 74.0083L406.561 76.9333L387.061 65.6669L385.607 64.8264L401.159 46.2773L417.74 43.3519L427.58 57.4189L423.143 74.0083ZM393.481 53.6194L384.58 64.2329L376.71 59.6864V50.5884L385.29 49.073L399.371 46.5895L393.481 53.6194ZM384.841 65.7364L386.281 66.5648L404.776 77.2503L382.115 81.2493L378.995 72.7013L381.448 69.7763L384.841 65.7364ZM382.319 85.2198L389.224 104.194L369.304 92.6793L372.424 84.1338L381.373 82.5558L382.319 85.2198ZM389.845 105.911L393.556 116.111L395.605 121.746L389.279 128.074L383.471 133.889L366.373 132.393L360.613 116.558L364.192 106.711L368.888 93.7963L389.845 105.911ZM363.169 106.122L359.999 114.85L356.639 105.647L352.117 93.2103L359.999 88.6638L367.868 93.2103L363.169 106.122ZM355.952 107.157L359.372 116.558L358.54 118.852L353.615 132.393L336.52 133.889L324.383 121.746L330.143 105.911L350.656 94.0608L351.097 93.8038L355.952 107.157ZM350.255 92.9438L330.764 104.203L335.833 90.2728L338.639 82.5658L347.588 84.1438L350.708 92.6893L350.255 92.9438ZM337.873 81.2448L315.21 77.2458L323.053 72.7133L335.14 65.7319L340.981 72.6968L337.873 81.2448ZM320.612 46.5895L343.273 50.5884V59.6814L341.833 60.5149L335.406 64.2284L320.612 46.5895ZM295.919 75.0243L311.864 77.8388L306.301 81.0523L297.839 85.9403L299.312 102.813L285.45 93.0973L271.43 101.199L276.959 85.9738L264.99 73.9963L281.831 72.5213L290.73 59.7919L291.527 58.6534L295.919 75.0243ZM291.146 57.1909L287.145 62.9074C284.67 66.4449 281.879 70.4318 281.2 71.4068L263.92 72.9178L251.723 60.7119L253.982 42.079L269.418 33.154L286.672 40.513L291.136 57.1864L291.146 57.1909ZM250.502 61.1369L262.406 73.0523L245.546 74.5268L239.999 89.7518L234.462 74.5268L217.602 73.0523L229.506 61.1369L227.279 42.8115L239.999 50.1559L251.279 43.6402L252.719 42.8115L250.502 61.1369ZM228.29 60.7119L216.093 72.9178L200.013 71.5103L198.813 71.4068L188.867 57.1909L193.331 40.5178L210.58 33.154L226.022 42.0742L228.29 60.7119ZM197.999 72.3028L198.158 72.5288L205.223 73.1483L214.998 74.0033L203.039 85.9738L208.578 101.199L194.558 93.0973L180.69 102.805L182.159 85.9403L168.143 77.8388L184.079 75.0243L188.459 58.6654L197.999 72.3028ZM144.59 64.2284L136.721 59.6814V50.5884L159.381 46.5895L144.59 64.2284ZM144.854 65.7319L158.231 73.4603L164.783 77.2458L147.294 80.3298L142.123 81.2448L139.015 72.6968L143.021 67.9198L144.854 65.7319ZM149.229 104.203L137.709 97.5477L129.309 92.6893L132.429 84.1438L141.36 82.5658L149.229 104.203ZM137.767 98.9192L149.85 105.901L155.61 121.736L143.477 133.88L126.379 132.383L120.619 116.548L127.116 98.6862L128.894 93.7938L137.767 98.9192ZM120.007 114.841L112.137 93.2008L112.248 93.1383L120 88.6638L127.869 93.2103L120.007 114.841ZM118.265 113.469L119.385 116.548L113.625 132.383L96.5302 133.88L84.3957 121.736L90.1557 105.901L102.24 98.9287L111.12 93.8038L118.265 113.469ZM102.288 97.5477L90.7677 104.203L95.8367 90.2728L98.6397 82.5658L107.589 84.1438L110.697 92.6893L102.288 97.5477ZM97.9987 80.9108L97.8787 81.2448L75.2157 77.2458L95.1357 65.7319L100.977 72.6968L97.9987 80.9108ZM80.6182 46.5895L89.1382 48.093L103.279 50.5884V59.6814L101.645 60.6279L95.4047 64.2304L80.6182 46.5895ZM94.3822 64.8214L73.4397 76.9288L65.6423 75.5523L56.8583 74.0033L52.4038 57.4119L59.6038 47.1419L62.2608 43.3447L78.8422 46.2701L94.3822 64.8214ZM46.5718 131.089L63.1533 134.014L67.5958 150.601L61.6318 159.127L57.7508 164.67L41.1695 161.745L25.6175 143.196L37.5959 136.274L46.5718 131.089ZM58.2813 165.951L60.5663 162.689L67.9893 152.078L72.3477 168.352L89.3182 175.591L76.5982 182.935V197.627L61.8503 186.538L45.5998 190.9L52.7518 175.548L42.3383 163.138L58.2813 165.951ZM61.6078 187.806L70.0798 194.19L76.5932 199.087V216.93L61.6078 228.204L48.7414 224.753L44.947 223.737L37.6199 208.003L44.947 192.274L61.6078 187.806ZM44.119 224.724L51.3718 240.287L50.0638 241.849L40.5599 253.195L37.4399 253.745L16.7183 257.4V233.185L27.5423 220.278L44.1166 224.724H44.119ZM41.1695 254.266L57.7508 251.34L67.5908 265.408L66.0528 271.148L63.1488 281.997L46.567 284.922L37.5911 279.737L25.6127 272.815L41.1695 254.266ZM52.7808 357.196L56.8463 342.021L73.4397 339.089L84.2062 345.31L94.3942 351.196L78.8422 369.745L62.2608 372.671L52.4208 358.603L52.7808 357.196ZM95.4092 351.782L96.8662 352.623L103.279 356.329V365.422L80.6182 369.421L95.4092 351.782ZM95.1452 350.279L85.6027 344.755L75.2157 338.75L91.8622 335.813L97.8767 334.751L100.997 343.299L95.1452 350.279ZM90.7702 311.808L102.29 318.462L110.69 323.321L107.582 331.867L98.6397 333.452L90.7702 311.808ZM102.233 317.091L90.1487 310.11L84.3887 294.275L96.5227 282.131L113.618 283.628L119.378 299.462L118.257 302.544L111.103 322.216L102.233 317.091ZM119.993 301.17L127.862 322.81L120.151 327.265L119.993 327.356L117.648 326.002L112.128 322.81L119.993 301.17ZM120.614 299.462L126.374 283.628L143.469 282.131L155.603 294.275L149.843 310.11L137.76 317.089L128.88 322.214L127.92 319.495L120.614 299.462ZM137.705 318.472L149.224 311.817L141.36 333.452L132.41 331.874L129.29 323.328L137.705 318.472ZM141.943 335.251L142.116 334.771L159.47 337.833L164.776 338.769L154.48 344.719L144.846 350.284L139.008 343.318L141.943 335.251ZM159.374 369.431L136.713 365.432V356.336L139.593 354.676L144.59 351.794L159.374 369.431ZM145.61 351.199L156.666 344.81L166.564 339.091L183.153 342.021L187.595 358.594L177.755 372.661L161.174 369.736L145.61 351.199ZM184.079 340.994L168.143 338.179L182.159 330.077L180.69 313.2L194.555 322.915L208.576 314.814L203.039 330.044L215.006 342.021L213.381 342.163L198.443 343.463H198.4L198.16 343.484L194.291 349.008L188.464 357.34L187.871 355.128L184.079 340.994ZM188.862 358.834L196.338 348.151L198.808 344.62L216.088 343.107L228.285 355.313L226.026 373.946L210.58 382.852L193.326 375.493L188.862 358.834ZM229.506 354.888L217.602 342.973L234.462 341.498L239.999 326.266L245.536 341.491L262.396 342.965L250.492 354.881L252.712 373.209L239.992 365.862L227.272 373.209L229.506 354.888ZM251.718 355.313L263.915 343.107L281.195 344.62L291.141 358.834L286.676 375.507L269.418 382.852L266.507 381.17L253.977 373.931L253.497 369.877L251.718 355.313ZM281.999 343.72L281.97 343.676L281.843 343.496L281.38 343.455L265.01 342.014L276.978 330.037L271.442 314.812L285.462 322.913L299.324 313.198L297.851 330.073L311.855 338.179L305.48 339.305L295.909 340.986L291.529 357.347L281.999 343.72ZM333.059 354.604L335.418 351.79L336.685 352.51L343.288 356.324V365.417L321.817 369.207L320.617 369.416L333.059 354.604ZM335.154 350.281L325.612 344.757L315.224 338.753L331.871 335.815L337.888 334.756L341.008 343.302L335.154 350.281ZM330.779 311.81L350.269 323.071L350.706 323.324L347.586 331.869L338.636 333.447L330.779 311.81ZM350.67 321.952L330.157 310.102L324.397 294.267L336.534 282.124L353.629 283.62L359.389 299.455L355.852 309.185L351.114 322.209L350.67 321.952ZM356.557 310.664L359.999 301.168L363.304 310.254L367.864 322.807L359.999 327.354L357.599 325.963L352.129 322.807L356.557 310.664ZM364.307 309.572L360.63 299.465L366.39 283.63L383.485 282.134L395.62 294.277L389.86 310.112L368.905 322.219L364.307 309.572ZM389.238 311.82L381.359 333.452L372.409 331.874L369.289 323.328L389.238 311.82ZM382.132 334.78L399.731 337.886L404.792 338.777L396.272 343.7L384.863 350.291L379.024 343.326L382.132 334.78ZM399.39 369.433L376.729 365.434V356.336L379.276 354.864L384.599 351.79L399.39 369.433ZM385.626 351.201L397.604 344.279L406.58 339.094L423.162 342.019L427.604 358.608L417.764 372.675L401.183 369.75L385.626 351.201ZM424.098 340.998L408.143 338.179L422.164 330.08L420.69 313.205L425.468 316.554L434.554 322.92L448.575 314.819L443.038 330.044L449.278 336.288L455.005 342.019L438.224 343.489H438.164L434.804 348.293L432.884 351.038L428.473 357.342L424.098 340.998ZM429.04 358.594L429.244 358.301L429.38 358.104L429.436 358.025L438.814 344.62L456.094 343.107L468.291 355.313L466.033 373.946L453.917 380.93L450.579 382.852L433.325 375.493L428.862 358.819L429.04 358.594ZM469.481 355.169L469.515 354.885L457.611 342.973L474.471 341.496L478.971 329.119L480.008 326.271L485.545 341.496L502.403 342.973L490.501 354.885L492.721 373.213L480.001 365.866L467.281 373.213L469.481 355.169ZM521.843 343.501L505.368 342.06L505.003 342.029L516.968 330.051L511.433 314.826L525.453 322.927L539.318 313.213L537.843 330.087L551.853 338.179L535.918 340.994L531.538 357.354L521.843 343.501ZM536.853 342.019L553.438 339.094L574.388 351.201L570.928 355.327L558.838 369.738L542.258 372.663L532.418 358.596L536.853 342.019ZM572.273 355.548L575.418 351.794L578.903 353.807L583.288 356.341V365.434L560.628 369.433L572.273 355.548ZM575.153 350.291L574.513 349.923L555.223 338.777L558.963 338.116L577.883 334.78L580.908 343.1L580.993 343.326L575.153 350.291ZM577.478 330.243L570.778 311.82L587.908 321.719L590.703 323.333L587.593 331.879L578.643 333.457L577.478 330.243ZM575.418 313.153L570.153 310.112L564.393 294.277L576.528 282.134L593.623 283.63L599.383 299.465L591.108 322.219L575.418 313.153ZM599.498 302.585L600.003 301.182L603.353 310.386L607.873 322.822L602.423 325.97L600.003 327.368L596.338 325.247L592.138 322.822L599.498 302.585ZM600.628 299.462L606.388 283.628L621.598 282.297L623.483 282.131L635.618 294.275L629.858 310.11L624.598 313.15L608.903 322.216L600.628 299.462ZM623.668 315.033L629.233 311.817L621.358 333.452L612.408 331.874L609.298 323.328L623.668 315.033ZM622.128 334.778L641.043 338.114L644.788 338.774L625.498 349.921L624.858 350.288L619.018 343.323L622.128 334.778ZM629.568 357.727L639.378 369.431L616.718 365.432V356.336L624.588 351.79L629.568 357.727ZM629.298 355.589L625.618 351.199L646.568 339.091L663.153 342.017L667.593 358.606L666.113 360.719L657.748 372.673L641.168 369.748L629.298 355.589ZM664.098 340.996L648.143 338.179L662.163 330.08L660.688 313.205L670.943 320.391L674.553 322.92L688.573 314.819L683.038 330.044L695.008 342.021L678.168 343.496L668.468 357.354L664.098 340.996ZM674.623 321.542L660.563 311.695L659.068 294.587L673.653 286.161L697.483 290.365L689.203 313.119L674.623 321.542ZM673.423 284.934L656.843 282.009L652.403 265.405L662.243 251.338L678.823 254.263L690.693 268.422L694.378 272.812L673.423 284.934ZM661.713 250.072L652.008 263.945L647.648 247.671L630.678 240.432L643.398 233.087V218.39L658.148 229.479L674.398 225.118L667.248 240.47L677.653 252.88L661.713 250.072ZM658.388 228.216L643.393 216.942V199.087L646.568 196.686L658.388 187.799L675.048 192.266L682.378 208.003L675.053 223.73L658.388 228.216ZM658.148 186.55L643.398 197.639V182.935L630.678 175.591L647.648 168.352L652.008 152.078L661.713 165.951L677.658 163.138L667.253 175.55L674.403 190.9L658.148 186.55ZM662.253 164.694L652.413 150.627L653.763 145.583L656.843 134.028L673.438 131.089L682.558 136.356L694.398 143.196L678.848 161.745L662.253 164.694ZM659.063 121.462L659.393 117.708L660.558 104.355L674.618 94.5073L689.198 102.933L697.428 125.557L697.478 125.687L673.648 129.89L659.063 121.462ZM616.718 25.1873L622.078 18.7867L627.538 12.2802L644.108 16.7235L651.363 32.2894L640.558 45.1965L616.728 49.402L616.718 25.1873ZM584.448 7.91145L597.918 1.626L599.998 0.65328L615.548 7.91145V24.7622L599.998 43.3111L584.448 24.7622V7.91145ZM615.548 26.5804V49.6062L606.603 51.1864L600.763 44.2214L615.548 26.5804ZM584.448 26.5804L599.233 44.219L593.398 51.1839L589.748 50.5404L584.448 49.6038V26.5804ZM584.448 60.3564V50.7949L589.143 51.6234L593.858 52.4549L599.998 45.1293L606.138 52.4549L615.548 50.7924V60.3564L623.828 65.1384L617.683 72.4638L620.953 81.4488L611.543 83.1108L608.273 92.0958L599.998 87.3138L591.723 92.0958L588.453 83.1108L579.043 81.4488L582.313 72.4638L576.173 65.1384L582.413 61.5359L584.448 60.3564ZM555.888 16.7235L572.463 12.2802L583.283 25.1873V49.402L574.378 47.8313L559.458 45.1893L552.998 37.4868L548.638 32.2894L550.108 29.1335L555.888 16.7235ZM523.403 25.0817V10.3924L538.148 21.479L554.398 17.1198L548.768 29.2007L547.248 32.4695L557.653 44.8819L541.708 42.067L532.003 55.9419L527.643 39.6652L510.683 32.4335L523.403 25.0817ZM495.956 25.8022C496.273 23.1987 497.307 14.658 497.705 11.37C497.763 10.8896 497.806 10.5341 497.833 10.3132L510.553 0.742145L512.233 1.99827L522.238 9.5134V24.4044L509.348 31.8499L495.922 26.1216C495.92 26.0328 495.934 25.9223 495.949 25.7998L495.956 25.8022ZM495.118 32.5776L495.754 27.3345L498.497 28.5042L508.063 32.5872L503.758 35.0755L494.158 40.6283L495.118 32.5776ZM470.751 24.5509L479.998 20.6096L481.501 21.2509L494.638 26.859L492.879 41.3609L488.782 43.7218L479.998 48.8064L467.11 41.3609L465.358 26.859L470.751 24.5509ZM465.838 40.6283L451.918 32.5848L464.228 27.3345L465.838 40.6283ZM437.758 9.5134L443.931 4.87319L449.441 0.73014L453.761 3.98213L462.161 10.3012L464.081 26.1168L463.481 26.3738L450.653 31.8451L437.765 24.3996L437.758 9.5134ZM421.842 21.479L436.589 10.3924V25.0817L449.309 32.4287L432.34 39.6652L427.981 55.9374L424.096 50.3844L418.273 42.0622L402.33 44.8771L412.736 32.4647L405.599 17.1198L421.842 21.479ZM376.708 25.1873L380.612 20.5303L387.532 12.2802L404.106 16.7235L404.61 17.8043L411.359 32.2894L406.744 37.7943L400.559 45.1965L376.729 49.402L376.708 25.1873ZM344.447 7.91145L357.428 1.85417L359.999 0.65328L360.853 1.05438L375.551 7.91145V24.7622L359.999 43.3111L357.582 40.429L344.447 24.7622V7.91145ZM375.551 26.5804V49.6062L366.601 51.1864L360.762 44.2214L375.551 26.5804ZM344.447 26.5804L359.236 44.219L353.396 51.1839L349.343 50.4634L344.447 49.599V26.5804ZM344.447 60.3564V50.7924L348.568 51.5134L353.848 52.4474L359.989 45.122L366.131 52.4474L375.541 50.7854V60.3494L383.819 65.1314L381.959 67.3479L377.675 72.4568L380.944 81.4418L371.543 83.1108L368.274 92.0958L359.999 87.3138L351.724 92.0958L348.455 83.1108L339.044 81.4488L340.588 77.2098L342.313 72.4638L336.172 65.1384L342.224 61.6389L344.447 60.3564ZM315.887 16.7235L332.464 12.2802L343.285 25.1873V49.402L320.245 45.3358L319.451 45.1965L308.639 32.2894L315.887 16.7235ZM283.403 25.0817V10.3924L298.151 21.479L314.399 17.1198L307.247 32.4695L317.653 44.8819L301.71 42.067L292.002 55.9419L287.644 39.6652L270.683 32.4335L283.403 25.0817ZM255.983 25.586V25.5548C255.983 25.5284 255.983 25.5044 255.983 25.478C256.317 22.7328 257.195 15.4938 257.618 12.0016C257.711 11.2186 257.786 10.623 257.822 10.3204L270.542 0.74935L282.239 9.5134V24.4044L269.351 31.8499L267.911 31.2326L255.933 26.1216C255.928 25.9799 255.95 25.7974 255.976 25.586H255.983ZM255.76 27.4258V27.3345L268.079 32.5848L254.159 40.6283L255.76 27.4258ZM225.359 26.8566C226.079 26.5491 227.711 25.855 229.634 25.0336L239.999 20.6096L242.248 21.5703L254.646 26.8542L254.406 28.8044L252.885 41.3585L251.831 41.9661L239.999 48.8064L227.111 41.3609L225.957 31.8475L225.359 26.8566ZM225.839 40.6283L222.959 38.9639L211.919 32.5848L224.229 27.3345L225.839 40.6283ZM197.759 9.5134L209.442 0.73014L212.925 3.37209L222.172 10.3228L224.092 26.1384L210.652 31.8667L197.764 24.4212L197.759 9.5134ZM181.854 21.479L196.602 10.3924V25.0817L209.322 32.4287L192.354 39.6652L187.996 55.9419L178.288 42.067L162.345 44.8819L172.751 32.4695L165.599 17.1198L181.854 21.479ZM136.721 25.1873L143.073 17.6122L147.542 12.2802L164.118 16.7235L171.371 32.2894L160.559 45.1965L143.658 48.1795L136.73 49.402L136.721 25.1873ZM104.448 7.91145L116.853 2.12317L120 0.65328L123.864 2.45701L135.552 7.91145V24.7622L120 43.3111L104.448 24.7622V7.91145ZM135.552 26.5804V49.6062L126.602 51.1864L120.763 44.2214L131.04 31.9531L135.552 26.5804ZM104.448 26.5804L119.237 44.219L113.397 51.1839L110.102 50.6029L104.448 49.6062V26.5804ZM104.448 60.3564V50.7924L110.028 51.7774L113.868 52.4549L120 45.1293L125.909 52.1759L126.149 52.4549L127.766 52.1689L135.559 50.7924V60.3564L143.837 65.1384L137.693 72.4638L140.961 81.4488L131.544 83.1108L128.275 92.0958L120 87.3138L111.725 92.0958L108.456 83.1108L99.0452 81.4488L100.173 78.3458L102.314 72.4638L96.1727 65.1384L101.966 61.7904L104.448 60.3564ZM75.8877 16.7235L92.4647 12.2802L103.286 25.1873V49.402L98.9207 48.631L79.4587 45.1965L68.6398 32.2894L75.8877 16.7235ZM43.4038 25.0817V10.3924L58.1518 21.479L74.3997 17.1198L67.2478 32.4695L77.6542 44.8819L61.7108 42.067L60.7368 43.46L52.0028 55.9494L47.6446 39.6724L30.6839 32.4335L43.4038 25.0817ZM16.0223 25.2714C16.3919 22.2116 17.3207 14.5451 17.7023 11.4204C17.7623 10.9232 17.8103 10.5389 17.8367 10.3108L30.5567 0.73014L42.2399 9.5134V24.4044L29.3519 31.8499L29.1119 31.749L15.9119 26.1216C15.9359 25.9103 15.9719 25.6221 16.0151 25.2714H16.0223ZM15.7823 27.3345L28.0799 32.5848L14.16 40.6283L15.7823 27.3345ZM11.736 60.7194L13.9944 42.0862L29.4191 33.154L46.6726 40.513L51.1368 57.1864L46.1158 64.3769C46.0438 64.4829 45.9694 64.5884 45.895 64.6919L45.8134 64.8094L45.6742 65.0089L45.5014 65.2489L41.1815 71.4118L23.9015 72.9223L11.736 60.7194ZM0.638398 91.4618L6.39838 75.6293L23.4935 74.1328L35.6303 86.2763L34.2599 90.0398L29.8703 102.109L9.33837 113.959L8.89677 114.214L0.638398 91.4618ZM12.4272 123.886L9.30717 115.34L29.2271 103.826L21.3599 125.454L12.4272 123.886ZM19.0319 135.333L22.1519 126.787L38.8343 129.732L44.8126 130.786L32.7455 137.727L24.8543 142.291L19.0319 135.333ZM16.7375 148.348L24.6071 143.801L39.3983 161.442L38.1983 161.231L16.7207 157.431L16.7375 148.348ZM16.7375 158.63L37.4399 162.273L40.5599 162.823L41.9447 164.473L51.3813 175.73L44.1286 191.294L27.5543 195.739L16.7207 182.832L16.7375 158.63ZM3.11999 166.613L0.763197 163.811L6.60238 156.845L15.5519 158.423V181.439L3.11999 166.613ZM1.3824 208.003L16.7207 200.843V184.648L27.1199 197.06L43.4686 192.677L36.4487 207.763L36.3311 208.003L36.5279 208.423L43.4734 223.326L27.1199 218.957L16.7207 231.37V215.167L1.3824 208.003ZM16.7207 267.675V258.579L38.1911 254.792L39.3911 254.58L24.5999 272.222L16.7207 267.675ZM19.0151 280.69L23.8439 274.926L24.8543 273.725L32.7455 278.288L44.7838 285.242L43.2671 285.511L22.1231 289.241L19.0151 280.69ZM12.4104 292.137L21.3599 290.564L29.2295 312.204L9.30957 300.69L12.4104 292.137ZM6.37918 340.391L0.619198 324.558L8.89437 301.804L9.33597 302.059L29.8511 313.921L35.6111 329.753L23.4767 341.897L6.37918 340.391ZM11.7192 355.306L23.9159 343.1L38.8823 344.409L41.1911 344.613L43.111 347.344L51.1368 358.834L46.6726 375.507L29.4191 382.852L13.9776 373.931L11.7192 355.306ZM14.16 375.389L28.0799 383.433L15.7703 388.683L14.16 375.389ZM42.2399 405.282V406.504L30.5567 415.276L17.8367 405.705L15.9167 389.889L16.0271 389.841L29.3447 384.161L42.2327 391.606L42.2399 405.282ZM58.1568 394.539L43.4086 405.625V390.936L30.6887 383.589L47.6566 376.352L52.0148 360.076L61.7228 373.951L77.6662 371.138L71.0948 378.975L67.2548 383.539L74.4067 398.888L58.1568 394.539ZM103.291 390.83L92.4572 403.747L75.8807 399.304L68.6398 383.728L71.6758 380.106L79.4637 370.821L103.291 366.616V390.83ZM135.564 408.106L120 415.365L104.448 408.106V391.258L120 372.709L135.552 391.258L135.564 408.106ZM104.46 389.437V366.412L113.409 364.831L119.251 371.796L115.757 375.961L104.46 389.437ZM135.564 389.437L120.763 371.804L126.605 364.838L135.552 366.419L135.564 389.437ZM135.564 365.225L126.153 363.563L120 370.888L113.858 363.563L104.448 365.225V355.661L96.1702 350.879L102.314 343.554L99.0452 334.576L108.456 332.914L111.725 323.929L116.364 326.609L120 328.711L121.92 327.606L128.285 323.929L131.553 332.914L140.964 334.576L137.695 343.561L143.839 350.886L139.2 353.55L135.559 355.654L135.564 365.225ZM164.123 399.294L147.542 403.747L136.721 390.84V366.616L160.559 370.821L171.381 383.728L164.123 399.294ZM196.607 390.936V405.625L181.859 394.539L165.599 398.898L172.751 383.548L162.345 371.138L178.288 373.951L187.996 360.076L192.354 376.352L209.325 383.589L196.607 390.936ZM222.177 405.707L215.039 411.075L209.447 415.278L197.776 406.504V391.613L202.038 389.149L210.664 384.165L224.104 389.894C223.797 392.295 222.395 403.87 222.172 405.707H222.177ZM224.289 388.28L224.238 388.683L211.919 383.433L225.839 375.389L224.289 388.28ZM254.651 389.161L246.921 392.459L239.999 395.413L228.191 390.369L225.352 389.168L227.111 374.666L239.999 367.221L252.887 374.666L253.514 379.833L254.646 389.168L254.651 389.161ZM254.157 375.389L268.077 383.433L255.767 388.683L254.157 375.389ZM282.237 391.611V406.502L270.556 415.276L257.836 405.705L255.916 389.889L257.116 389.382L269.356 384.161L282.244 391.606L282.237 391.611ZM298.153 394.539L283.406 405.625V390.936L270.686 383.589L271.751 383.135L287.654 376.352L292.012 360.076L301.72 373.951L317.663 371.138L307.256 383.548L314.408 398.898L298.153 394.539ZM343.288 390.83L332.456 403.747L315.88 399.304L308.639 383.728L319.463 370.821L322.568 370.274L343.29 366.616L343.288 390.83ZM375.56 408.106L360.008 415.365L344.456 408.106V391.258L360.008 372.709L375.56 391.258V408.106ZM344.456 389.437V366.412L353.406 364.831L359.248 371.796L344.456 389.437ZM375.56 389.437L360.762 371.804L366.604 364.838L375.551 366.419L375.56 389.437ZM375.56 355.661V365.225L366.15 363.563L360.008 370.888L353.867 363.563L344.456 365.225V355.661L336.179 350.879L342.323 343.554L339.044 334.576L348.455 332.914L351.724 323.929L356.478 326.674L359.999 328.711L362.351 327.351L368.274 323.929L371.543 332.914L380.953 334.576L380.886 334.763L377.684 343.561L378.287 344.282L383.828 350.889L379.014 353.67L375.56 355.661ZM404.12 399.294L387.546 403.738L376.722 390.83V366.616L395.334 369.901L400.552 370.821L411.373 383.728L404.12 399.294ZM436.604 390.936V405.625L425.651 397.39L421.856 394.539L405.599 398.898L412.751 383.548L402.344 371.138L418.288 373.951L427.996 360.076L431.392 372.757L432.352 376.36L445.877 382.124L449.319 383.591L436.604 390.936ZM462.173 405.707L455.377 410.818L449.441 415.276L442.169 409.809L437.77 406.502V391.611L449.965 384.564L450.658 384.163L464.098 389.891C463.796 392.296 462.394 403.87 462.171 405.707H462.173ZM464.235 388.683L452.158 383.536L451.918 383.433L465.838 375.389L464.235 388.683ZM485.475 393.071L480.001 395.408L469.937 391.116L465.353 389.161L467.113 374.659L480.001 367.214L492.889 374.659L494.648 389.161L485.475 393.071ZM494.153 375.389L508.073 383.433L495.764 388.683L494.153 375.389ZM522.233 406.504L510.553 415.276L497.835 405.705L495.915 389.889L509.343 384.161L522.233 391.606V406.504ZM538.148 394.539L523.403 405.625V390.936L510.683 383.589L527.648 376.352L528.998 371.309L532.008 360.068L541.718 373.944L557.658 371.131L547.253 383.541L554.403 398.891L538.148 394.539ZM583.283 390.83L572.458 403.747L555.878 399.304L548.638 383.728L551.578 380.227L559.463 370.821L560.888 370.569L583.288 366.616L583.283 390.83ZM615.558 408.106L600.003 415.365L584.453 408.106V391.258L600.003 372.709L615.558 391.258V408.106ZM584.453 389.437V366.412L593.403 364.831L599.243 371.796L584.453 389.437ZM615.558 389.437L600.763 371.804L606.598 364.838L615.548 366.419L615.558 389.437ZM615.558 355.661V365.225L606.148 363.563L600.003 370.888L593.863 363.563L584.453 365.225V355.661L578.303 352.109L576.168 350.874L582.313 343.549L582.228 343.309L579.043 334.576L588.453 332.914L591.723 323.929L595.458 326.09L599.998 328.716L604.248 326.259L608.273 323.934L611.543 332.919L620.953 334.581L620.808 334.977L617.688 343.566L620.878 347.368L623.833 350.891L615.558 355.661ZM644.118 399.294L627.538 403.738L616.718 390.83V366.616L640.373 370.79L640.548 370.821L641.178 371.573L651.368 383.728L644.118 399.294ZM676.603 405.625L665.643 397.39L661.853 394.539L645.598 398.898L652.748 383.548L642.343 371.138L658.288 373.951L667.993 360.076L672.353 376.352L689.323 383.589L676.603 390.936V405.625ZM702.173 405.707L694.708 411.318L689.428 415.278L684.718 411.731L677.758 406.504V391.613L684.308 387.828L690.648 384.165L700.008 388.16L704.068 389.894C703.798 392.295 702.393 403.867 702.173 405.707ZM704.233 388.683L692.073 383.495L691.923 383.433L705.843 375.389L704.233 388.683ZM708.278 355.299L706.018 373.931L693.918 380.93L690.578 382.852L673.323 375.493L668.863 358.819C670.063 357.121 677.623 346.299 678.808 344.606L696.088 343.093L708.278 355.299ZM711.103 301.797L715.958 315.148L719.378 324.551L713.618 340.383L708.353 340.845L696.523 341.882L684.388 329.739L690.148 313.907L694.733 311.265L711.103 301.807V301.797ZM700.938 290.963L707.588 292.137L710.698 300.683L695.758 309.317L690.763 312.199L698.633 290.559L700.938 290.963ZM700.983 280.69L697.873 289.236L678.958 285.897L675.213 285.237L693.988 274.39L695.143 273.725L700.983 280.69ZM703.278 267.675L695.408 272.222L690.428 266.287L680.618 254.597L703.278 258.596V267.675ZM703.278 257.393L680.878 253.449L679.448 253.209L668.628 240.299L675.878 224.736L692.458 220.29L703.278 233.2V257.393ZM719.232 252.212L713.398 259.177L704.448 257.597V234.578L719.232 252.212ZM718.618 208.003L703.278 215.16V231.362L692.878 218.957L676.528 223.341L683.543 208.289C683.558 208.267 683.568 208.244 683.578 208.221L683.673 208.01L683.538 207.717L676.528 192.679L692.878 197.06L703.283 184.65V200.85L718.618 208.003ZM703.278 182.832L692.458 195.739L675.878 191.294L668.638 175.73L670.358 173.679L679.463 162.823L680.888 162.583L703.288 158.63L703.278 182.832ZM698.338 145.485L703.278 148.336V157.431L680.618 161.43L695.408 143.789L698.338 145.485ZM700.978 135.321L695.138 142.286L683.858 135.775L675.198 130.772L691.868 127.83L697.868 126.773L700.978 135.321ZM707.583 123.874L698.638 125.454L690.768 103.814L710.688 115.328L707.583 123.874ZM713.613 75.6268L719.373 91.4593L715.838 101.189L711.098 114.214L693.203 103.874L690.143 102.106L684.383 86.2738L696.518 74.1308L713.613 75.6268ZM708.273 60.7119L696.078 72.9178L678.798 71.4068L668.853 57.1909L673.318 40.5178L690.578 33.154L706.018 42.0742L708.273 60.7119ZM705.838 40.6283L704.953 40.1191L691.918 32.5848L704.228 27.3345L705.838 40.6283Z" fill="#DBCFA8"/>
</svg>
